<svg width="14" height="14" viewBox="0 0 14 14" fill="none" xmlns="http://www.w3.org/2000/svg">
<path d="M4.17036 4H3.57036C2.73029 4 2.31025 4 1.98938 4.16349C1.70714 4.3073 1.47766 4.53677 1.33385 4.81901C1.17036 5.13988 1.17036 5.55992 1.17036 6.4V10.6C1.17036 11.4401 1.17036 11.8601 1.33385 12.181C1.47766 12.4632 1.70714 12.6927 1.98938 12.8365C2.31025 13 2.73029 13 3.57036 13H7.77036C8.61044 13 9.03048 13 9.35135 12.8365C9.63359 12.6927 9.86306 12.4632 10.0069 12.181C10.1704 11.8601 10.1704 11.4401 10.1704 10.6V10M6.57036 10H10.7704C11.6104 10 12.0305 10 12.3513 9.83651C12.6336 9.6927 12.8631 9.46323 13.0069 9.18099C13.1704 8.86012 13.1704 8.44008 13.1704 7.6V3.4C13.1704 2.55992 13.1704 2.13988 13.0069 1.81901C12.8631 1.53677 12.6336 1.3073 12.3513 1.16349C12.0305 1 11.6104 1 10.7704 1H6.57036C5.73029 1 5.31025 1 4.98938 1.16349C4.70714 1.3073 4.47766 1.53677 4.33385 1.81901C4.17036 2.13988 4.17036 2.55992 4.17036 3.4V7.6C4.17036 8.44008 4.17036 8.86012 4.33385 9.18099C4.47766 9.46323 4.70714 9.6927 4.98938 9.83651C5.31025 10 5.73029 10 6.57036 10Z" stroke="white" stroke-linecap="round" stroke-linejoin="round"/>
</svg>
