<svg width="33" height="32" viewBox="0 0 33 32" fill="none" xmlns="http://www.w3.org/2000/svg">
<path d="M13.172 18.9919L30.6842 1.48609M13.6697 19.7792L17.6407 27.721C18.6003 29.6403 19.0801 30.5999 19.6845 30.8572C20.2091 31.0805 20.8087 31.0401 21.2986 30.7484C21.863 30.4123 22.2097 29.397 22.9031 27.3664L30.406 5.39361C31.0102 3.62425 31.3123 2.73958 31.1055 2.15435C30.9256 1.64522 30.5251 1.24474 30.016 1.06486C29.4308 0.858098 28.5461 1.16018 26.7767 1.76436L4.80401 9.26724C2.77337 9.96063 1.75804 10.3073 1.42193 10.8718C1.13025 11.3616 1.08983 11.9613 1.31314 12.4858C1.57047 13.0903 2.53009 13.5701 4.44932 14.5297L12.3912 18.5006C12.7075 18.6588 12.8656 18.7378 13.0026 18.8434C13.1242 18.9372 13.2332 19.0462 13.3269 19.1678C13.4325 19.3048 13.5116 19.4629 13.6697 19.7792Z" stroke="#101828" stroke-width="2" stroke-linecap="round" stroke-linejoin="round"/>
</svg>
