<svg width="33" height="29" viewBox="0 0 33 29" fill="none" xmlns="http://www.w3.org/2000/svg">
<path d="M1.17036 7.66667V22.3333C1.17036 24.2002 1.17036 25.1336 1.53368 25.8466C1.85325 26.4738 2.36319 26.9838 2.9904 27.3034C3.70344 27.6667 4.63686 27.6667 6.5037 27.6667H25.837C27.7039 27.6667 28.6373 27.6667 29.3503 27.3034C29.9775 26.9838 30.4875 26.4738 30.8071 25.8466C31.1704 25.1336 31.1704 24.2002 31.1704 22.3333V12.1667C31.1704 11.0815 31.1704 10.5389 31.0452 10.0952C30.7304 8.97898 29.8581 8.10662 28.7418 7.79182C28.2981 7.66667 27.7555 7.66667 26.6704 7.66667M1.17036 7.66667V6.33333C1.17036 4.46649 1.17036 3.53307 1.53368 2.82003C1.85325 2.19282 2.36319 1.68289 2.9904 1.36331C3.70344 1 4.63686 1 6.5037 1H21.337C23.2039 1 24.1373 1 24.8503 1.36331C25.4775 1.68289 25.9875 2.19282 26.3071 2.82003C26.6704 3.53307 26.6704 4.46649 26.6704 6.33333V7.66667M1.17036 7.66667H26.6704M12.837 21V14.3333M16.1704 17.6676L9.5037 17.6667M31.1704 14.3333H27.837C25.9961 14.3333 24.5037 15.8257 24.5037 17.6667C24.5037 19.5076 25.9961 21 27.837 21H31.1704V14.3333Z" stroke="#E0EAFF" stroke-width="2" stroke-linecap="round" stroke-linejoin="round"/>
</svg>
