<svg width="33" height="32" viewBox="0 0 33 32" fill="none" xmlns="http://www.w3.org/2000/svg">
<g id="secret folder">
<path id="Vector" d="M30.5 8.5H29.5V6C29.5 5.73478 29.3946 5.48043 29.2071 5.29289C29.0196 5.10536 28.7652 5 28.5 5H14.7L14.33 4.45C14.2394 4.31244 14.1162 4.19938 13.9715 4.12088C13.8267 4.04238 13.6647 4.00085 13.5 4H2.5C2.23478 4 1.98043 4.10536 1.79289 4.29289C1.60536 4.48043 1.5 4.73478 1.5 5V27C1.5 27.2652 1.60536 27.5196 1.79289 27.7071C1.98043 27.8946 2.23478 28 2.5 28H30.5C30.7652 28 31.0196 27.8946 31.2071 27.7071C31.3946 27.5196 31.5 27.2652 31.5 27V9.5C31.5 9.23478 31.3946 8.98043 31.2071 8.79289C31.0196 8.60536 30.7652 8.5 30.5 8.5ZM27.5 7V8.5H17.04L16.04 7H27.5ZM29.5 26H3.5V6H12.96L15.67 10.05C15.7606 10.1876 15.8838 10.3006 16.0285 10.3791C16.1733 10.4576 16.3353 10.4991 16.5 10.5H29.5V26Z" fill="#012A4A"/>
<path id="Vector_2" d="M20 16V15.5C20 14.5717 19.6313 13.6815 18.9749 13.0251C18.3185 12.3687 17.4283 12 16.5 12C15.5717 12 14.6815 12.3687 14.0251 13.0251C13.3687 13.6815 13 14.5717 13 15.5V16C12.7348 16 12.4804 16.1054 12.2929 16.2929C12.1054 16.4804 12 16.7348 12 17V23C12 23.2652 12.1054 23.5196 12.2929 23.7071C12.4804 23.8946 12.7348 24 13 24H20C20.2652 24 20.5196 23.8946 20.7071 23.7071C20.8946 23.5196 21 23.2652 21 23V17C21 16.7348 20.8946 16.4804 20.7071 16.2929C20.5196 16.1054 20.2652 16 20 16ZM15 15.5C15 15.1022 15.158 14.7206 15.4393 14.4393C15.7206 14.158 16.1022 14 16.5 14C16.8978 14 17.2794 14.158 17.5607 14.4393C17.842 14.7206 18 15.1022 18 15.5V16H15V15.5ZM19 22H14V18H19V22Z" fill="#012A4A"/>
<path id="Vector_3" d="M15.79 20.7101C15.9306 20.8489 16.1092 20.9429 16.3032 20.9803C16.4972 21.0176 16.6979 20.9967 16.88 20.9201C17.0041 20.8752 17.1168 20.8036 17.2101 20.7103C17.3034 20.6169 17.3751 20.5042 17.42 20.3801C17.476 20.2615 17.5034 20.1313 17.5 20.0001C17.4984 19.8695 17.4712 19.7404 17.42 19.6201C17.3693 19.499 17.2983 19.3873 17.21 19.2901C17.0694 19.1514 16.8908 19.0574 16.6968 19.02C16.5028 18.9826 16.3021 19.0036 16.12 19.0801C15.9959 19.1251 15.8832 19.1967 15.7899 19.29C15.6966 19.3833 15.6249 19.496 15.58 19.6201C15.5271 19.7398 15.4998 19.8693 15.4998 20.0001C15.4998 20.131 15.5271 20.2604 15.58 20.3801C15.6306 20.5013 15.7017 20.6129 15.79 20.7101Z" fill="#012A4A"/>
</g>
</svg>
