<svg width="33" height="32" viewBox="0 0 33 32" fill="none" xmlns="http://www.w3.org/2000/svg">
<g id="Security">
<path id="Vector" d="M17.1312 30.75C18.1875 30.0781 19.2468 29.4094 20.3031 28.7375C20.7812 28.4344 21.2656 28.1344 21.7312 27.8094C22.8375 27.0375 23.875 26.1594 24.7968 25.1719C26.6218 23.2125 28.0093 20.8906 28.8875 18.3625C29.6031 16.2969 29.9093 14.1188 29.9093 11.9375C29.9093 10.5875 29.9093 9.23751 29.9093 7.88751C29.9093 7.85001 29.9093 7.81564 29.9093 7.77814C29.9093 7.21876 29.5187 6.73126 28.9906 6.57189C28.6093 6.45626 28.2312 6.33751 27.8656 6.18439C27.9656 6.22501 28.0656 6.26876 28.1656 6.30939C27.5124 6.03126 26.9 5.67501 26.3375 5.24376C26.4218 5.30939 26.5062 5.37501 26.5906 5.44064C26.0343 5.00939 25.5343 4.51251 25.1031 3.95626C25.1687 4.04064 25.2343 4.12501 25.2999 4.20939C24.8687 3.64689 24.5093 3.03126 24.2312 2.37814C24.2718 2.47814 24.3156 2.57814 24.3562 2.67814C24.2625 2.45314 24.175 2.22189 24.1 1.99064C23.9312 1.46251 23.4593 1.07189 22.8937 1.07189C22.4687 1.07189 22.0437 1.07189 21.6187 1.07189C20.6 1.07189 19.5781 1.07189 18.5593 1.07189C17.3312 1.07189 16.1031 1.07189 14.875 1.07189C13.8093 1.07189 12.7437 1.07189 11.6781 1.07189C11.1625 1.07189 10.6437 1.05626 10.1281 1.07189C10.1218 1.07189 10.1125 1.07189 10.1062 1.07189C9.53745 1.07189 9.0687 1.46251 8.89995 1.99064C8.82495 2.22501 8.74058 2.45314 8.6437 2.67814C8.68433 2.57814 8.72808 2.47814 8.7687 2.37814C8.49058 3.03126 8.1312 3.64376 7.69995 4.20939C7.76558 4.12501 7.8312 4.04064 7.89683 3.95626C7.46558 4.51251 6.96558 5.00939 6.40933 5.44064C6.4937 5.37501 6.57808 5.30939 6.66245 5.24376C6.09995 5.67501 5.48433 6.03126 4.83433 6.30939C4.93433 6.26876 5.03433 6.22501 5.13433 6.18439C4.76558 6.33751 4.39058 6.45626 4.00933 6.57189C3.4812 6.73126 3.09058 7.21876 3.09058 7.77814C3.09058 9.03439 3.09058 10.2906 3.09058 11.5469C3.09058 12.2094 3.09058 12.8719 3.13745 13.5344C3.23745 14.8813 3.46558 16.225 3.8437 17.5219C4.5937 20.0969 5.8937 22.4688 7.6187 24.5156C8.95933 26.1063 10.575 27.3938 12.325 28.5031C13.4781 29.2344 14.6312 29.9656 15.7843 30.6969C15.8125 30.7156 15.8437 30.7344 15.8718 30.7531C16.425 31.1031 17.275 30.8875 17.5812 30.3031C17.9062 29.6844 17.7218 28.9688 17.1312 28.5938C16.5687 28.2375 16.0062 27.8813 15.4468 27.525C14.7281 27.0688 14.0125 26.6156 13.2937 26.1594C12.7906 25.8406 12.3 25.5 11.825 25.1375C11.9093 25.2031 11.9937 25.2688 12.0781 25.3344C10.8968 24.4188 9.83433 23.3563 8.9187 22.175C8.98433 22.2594 9.04995 22.3438 9.11558 22.4281C8.18433 21.2188 7.40933 19.8938 6.81245 18.4875C6.85308 18.5875 6.89683 18.6875 6.93745 18.7875C6.32808 17.3406 5.91245 15.8219 5.70308 14.2656C5.7187 14.375 5.73433 14.4875 5.74683 14.5969C5.61245 13.5844 5.59058 12.5719 5.59058 11.5563C5.59058 10.5688 5.59058 9.58126 5.59058 8.59376C5.59058 8.32501 5.59058 8.05939 5.59058 7.79064C5.28433 8.19376 4.97808 8.59376 4.67183 8.99689C5.74995 8.67189 6.7937 8.24064 7.70933 7.58126C8.7937 6.80001 9.7187 5.83751 10.4062 4.68751C10.7843 4.05626 11.0875 3.36876 11.3125 2.66876C10.9093 2.97501 10.5093 3.28126 10.1062 3.58751C10.5312 3.58751 10.9562 3.58751 11.3812 3.58751C12.4 3.58751 13.4218 3.58751 14.4406 3.58751C15.6687 3.58751 16.8968 3.58751 18.125 3.58751C19.1906 3.58751 20.2562 3.58751 21.3218 3.58751C21.8375 3.58751 22.3562 3.60001 22.8718 3.58751C22.8781 3.58751 22.8874 3.58751 22.8937 3.58751C22.4906 3.28126 22.0906 2.97501 21.6875 2.66876C22.4718 5.11564 24.2531 7.24376 26.5906 8.34376C27.1531 8.60939 27.7312 8.81564 28.3281 8.99689C28.0218 8.59376 27.7156 8.19376 27.4093 7.79064C27.4093 8.49064 27.4093 9.19063 27.4093 9.89063C27.4093 10.6688 27.4093 11.4469 27.4093 12.2219C27.4093 13.0156 27.3562 13.8094 27.2531 14.5969C27.2687 14.4875 27.2843 14.375 27.2968 14.2656C27.0843 15.8188 26.6687 17.3406 26.0625 18.7875C26.1031 18.6875 26.1468 18.5875 26.1875 18.4875C25.5906 19.8938 24.8156 21.2188 23.8843 22.4281C23.9499 22.3438 24.0156 22.2594 24.0812 22.175C23.1656 23.3563 22.1031 24.4188 20.9218 25.3344C21.0062 25.2688 21.0906 25.2031 21.1749 25.1375C20.4749 25.6781 19.7312 26.1438 18.9875 26.6188C18.1625 27.1438 17.3375 27.6656 16.5125 28.1906C16.3 28.325 16.0843 28.4625 15.8718 28.5969C15.6 28.7688 15.3843 29.0281 15.2968 29.3438C15.2156 29.6438 15.2531 30.0406 15.4218 30.3063C15.7781 30.8563 16.5406 31.125 17.1312 30.75Z" fill="#012A4A"/>
<path id="Vector_2" d="M10.1312 15.9342C11.2 17.0029 12.2687 18.0717 13.3406 19.1436C13.4937 19.2967 13.6468 19.4498 13.7968 19.5998C14.275 20.0779 15.0875 20.0779 15.5656 19.5998C16.3906 18.7748 17.2187 17.9467 18.0437 17.1217C19.35 15.8154 20.6593 14.5061 21.9656 13.1998C22.2656 12.8998 22.5687 12.5967 22.8687 12.2967C23.3312 11.8342 23.3656 10.9842 22.8687 10.5279C22.3687 10.0686 21.5937 10.0342 21.1 10.5279C20.275 11.3529 19.4468 12.1811 18.6218 13.0061C17.3156 14.3123 16.0062 15.6217 14.7 16.9279C14.4 17.2279 14.0968 17.5311 13.7968 17.8311C14.3875 17.8311 14.975 17.8311 15.5656 17.8311C14.4968 16.7623 13.4281 15.6936 12.3562 14.6217C12.2031 14.4686 12.05 14.3154 11.9 14.1654C11.4375 13.7029 10.5875 13.6686 10.1312 14.1654C9.67184 14.6654 9.63747 15.4373 10.1312 15.9342Z" fill="#012A4A"/>
</g>
</svg>
