<svg width="33" height="32" viewBox="0 0 33 32" fill="none" xmlns="http://www.w3.org/2000/svg">
<g id="Transaction">
<path id="30" d="M29.94 20.17C29.9142 20.0942 29.8789 20.022 29.835 19.955C29.8256 19.9424 29.8172 19.929 29.81 19.915C29.7579 19.8476 29.6974 19.7871 29.63 19.735L23.63 15.235C23.4178 15.0759 23.1511 15.0075 22.8886 15.0451C22.626 15.0826 22.3891 15.2228 22.23 15.435C22.0709 15.6472 22.0025 15.9139 22.0401 16.1764C22.0776 16.439 22.2178 16.6759 22.43 16.835L26 19.5H4C3.73478 19.5 3.48043 19.6054 3.29289 19.7929C3.10536 19.9804 3 20.2348 3 20.5C3 20.7652 3.10536 21.0196 3.29289 21.2071C3.48043 21.3946 3.73478 21.5 4 21.5H26L22.4 24.2C22.2949 24.2788 22.2064 24.3775 22.1395 24.4905C22.0726 24.6035 22.0286 24.7286 22.01 24.8586C21.9915 24.9886 21.9987 25.121 22.0313 25.2482C22.0639 25.3754 22.1212 25.4949 22.2 25.6C22.2788 25.7051 22.3775 25.7936 22.4905 25.8605C22.6035 25.9274 22.7286 25.9714 22.8586 25.99C22.9886 26.0085 23.121 26.0013 23.2482 25.9687C23.3754 25.9361 23.4949 25.8788 23.6 25.8L29.6 21.3C29.6599 21.2501 29.7151 21.1949 29.765 21.135L29.8 21.085C29.8524 21.0093 29.8945 20.9269 29.925 20.84C29.9521 20.7559 29.9672 20.6683 29.97 20.58V20.5C29.9682 20.4106 29.9565 20.3218 29.935 20.235C29.9353 20.2133 29.9369 20.1915 29.94 20.17ZM3.05 11.8C3.08053 11.8869 3.12257 11.9693 3.175 12.045L3.21 12.095C3.25988 12.1549 3.31511 12.2101 3.375 12.26L9.375 16.76C9.58717 16.9191 9.85387 16.9875 10.1164 16.95C10.379 16.9124 10.6159 16.7722 10.775 16.56C10.9341 16.3478 11.0025 16.0811 10.9649 15.8186C10.9274 15.556 10.7872 15.3191 10.575 15.16L7 12.5H29C29.2652 12.5 29.5196 12.3946 29.7071 12.2071C29.8946 12.0196 30 11.7652 30 11.5C30 11.2348 29.8946 10.9804 29.7071 10.7929C29.5196 10.6054 29.2652 10.5 29 10.5H7L10.6 7.8C10.8122 7.64087 10.9524 7.40398 10.9899 7.14143C11.0275 6.87887 10.9591 6.61218 10.8 6.4C10.6409 6.18783 10.404 6.04756 10.1414 6.01005C9.87887 5.97255 9.61217 6.04087 9.4 6.2L3.4 10.7C3.33258 10.7521 3.27209 10.8126 3.22 10.88C3.22095 10.8933 3.22095 10.9067 3.22 10.92C3.17608 10.987 3.1408 11.0592 3.115 11.135C3.11583 11.1517 3.11583 11.1683 3.115 11.185C3.06217 11.2841 3.02346 11.3902 3 11.5V11.555C3.00574 11.6385 3.02255 11.7209 3.05 11.8Z" fill="#012A4A"/>
</g>
</svg>
