<svg width="33" height="32" viewBox="0 0 33 32" fill="none" xmlns="http://www.w3.org/2000/svg">
<g id="Transaction">
<g id="30">
<path id="Vector" d="M9.83333 17.333C9.47971 17.333 9.14057 17.1925 8.89052 16.9425C8.64048 16.6924 8.5 16.3533 8.5 15.9997V6.66634C8.5 6.31272 8.64048 5.97358 8.89052 5.72353C9.14057 5.47348 9.47971 5.33301 9.83333 5.33301C10.187 5.33301 10.5261 5.47348 10.7761 5.72353C11.0262 5.97358 11.1667 6.31272 11.1667 6.66634V15.9997C11.1667 16.3533 11.0262 16.6924 10.7761 16.9425C10.5261 17.1925 10.187 17.333 9.83333 17.333Z" fill="#012A4A"/>
<path id="Vector_2" d="M12.5 7.99992C12.3245 8.00093 12.1506 7.9673 11.9881 7.90095C11.8257 7.83459 11.6779 7.73683 11.5533 7.61325L9.83334 5.87992L8.11334 7.61325C7.86226 7.86432 7.52174 8.00537 7.16667 8.00537C6.8116 8.00537 6.47107 7.86432 6.22 7.61325C5.96893 7.36218 5.82788 7.02165 5.82788 6.66658C5.82788 6.31152 5.96893 5.97099 6.22 5.71992L8.88667 3.05325C9.13649 2.80492 9.47442 2.66553 9.82667 2.66553C10.1789 2.66553 10.5169 2.80492 10.7667 3.05325L13.4333 5.71992C13.6206 5.90561 13.7485 6.14266 13.801 6.40107C13.8536 6.65949 13.8283 6.92768 13.7284 7.17172C13.6285 7.41576 13.4584 7.6247 13.2398 7.77212C13.0211 7.91954 12.7637 7.99881 12.5 7.99992ZM23.1667 27.9999C22.813 27.9999 22.4739 27.8594 22.2239 27.6094C21.9738 27.3593 21.8333 27.0202 21.8333 26.6666V17.3333C21.8333 16.9796 21.9738 16.6405 22.2239 16.3904C22.4739 16.1404 22.813 15.9999 23.1667 15.9999C23.5203 15.9999 23.8594 16.1404 24.1095 16.3904C24.3595 16.6405 24.5 16.9796 24.5 17.3333V26.6666C24.5 27.0202 24.3595 27.3593 24.1095 27.6094C23.8594 27.8594 23.5203 27.9999 23.1667 27.9999Z" fill="#012A4A"/>
<path id="Vector_3" d="M23.1666 30.6665C22.9911 30.6675 22.8172 30.6339 22.6547 30.5675C22.4923 30.5012 22.3445 30.4034 22.22 30.2798L19.5533 27.6132C19.3349 27.3581 19.2207 27.03 19.2337 26.6944C19.2466 26.3589 19.3857 26.0405 19.6232 25.8031C19.8607 25.5656 20.179 25.4265 20.5146 25.4136C20.8501 25.4006 21.1782 25.5147 21.4333 25.7332L23.1666 27.4532L24.8866 25.7332C25.1417 25.5147 25.4698 25.4006 25.8054 25.4136C26.1409 25.4265 26.4593 25.5656 26.6967 25.8031C26.9342 26.0405 27.0733 26.3589 27.0862 26.6944C27.0992 27.03 26.9851 27.3581 26.7666 27.6132L24.1 30.2798C23.8516 30.5262 23.5164 30.665 23.1666 30.6665ZM28.5 17.3332C28.1463 17.3332 27.8072 17.1927 27.5571 16.9426C27.3071 16.6926 27.1666 16.3535 27.1666 15.9998C27.1666 13.1709 26.0428 10.4578 24.0424 8.45737C22.042 6.45698 19.3289 5.33317 16.5 5.33317C16.1463 5.33317 15.8072 5.19269 15.5571 4.94265C15.3071 4.6926 15.1666 4.35346 15.1666 3.99984C15.1666 3.64622 15.3071 3.30708 15.5571 3.05703C15.8072 2.80698 16.1463 2.6665 16.5 2.6665C18.2509 2.6665 19.9847 3.01138 21.6024 3.68144C23.2201 4.35151 24.6899 5.33363 25.928 6.57175C27.1662 7.80986 28.1483 9.27972 28.8184 10.8974C29.4884 12.5151 29.8333 14.2489 29.8333 15.9998C29.8333 16.3535 29.6928 16.6926 29.4428 16.9426C29.1927 17.1927 28.8536 17.3332 28.5 17.3332ZM16.5 29.3332C14.749 29.3332 13.0152 28.9883 11.3975 28.3182C9.77984 27.6482 8.30998 26.666 7.07187 25.4279C4.57138 22.9274 3.16663 19.5361 3.16663 15.9998C3.16663 15.6462 3.3071 15.3071 3.55715 15.057C3.8072 14.807 4.14634 14.6665 4.49996 14.6665C4.85358 14.6665 5.19272 14.807 5.44277 15.057C5.69282 15.3071 5.83329 15.6462 5.83329 15.9998C5.83329 18.8288 6.9571 21.5419 8.95749 23.5423C10.9579 25.5427 13.671 26.6665 16.5 26.6665C16.8536 26.6665 17.1927 26.807 17.4428 27.057C17.6928 27.3071 17.8333 27.6462 17.8333 27.9998C17.8333 28.3535 17.6928 28.6926 17.4428 28.9426C17.1927 29.1927 16.8536 29.3332 16.5 29.3332Z" fill="#012A4A"/>
</g>
</g>
</svg>
