<svg width="70" height="41" viewBox="0 0 70 41" fill="none" xmlns="http://www.w3.org/2000/svg">
<path d="M9.67457 6.6074C9.09574 6.3166 5.49061 9.01453 5.18728 9.28307C3.85432 10.4616 2.04549 12.2217 3.57882 13.5658C5.13998 14.935 7.68903 15.3941 9.60222 16.4725C11.6031 17.5995 9.83597 19.7005 8.90512 20.9305C6.56478 24.0236 4.52915 27.3213 2.78989 30.5535C2.32516 31.4162 -1.01699 40.2808 0.309016 40.349C-0.470171 40.3086 2.96243 32.6267 3.27271 32.1258C5.46974 28.593 8.53501 25.2745 11.6865 22.0158C12.9597 20.6996 14.2718 19.0104 13.885 17.4451C13.4884 15.8422 10.9268 15.0115 8.78129 14.2699C5.94838 13.2903 4.39557 12.7477 5.8802 10.7287C6.20579 10.2877 9.95424 6.74654 9.67457 6.6074Z" fill="#ED165F"/>
<path d="M7.1909 2.47213C7.27021 2.43735 7.31195 2.27733 7.35648 2.1048C7.401 1.93227 7.44831 1.74999 7.53875 1.67068C7.78503 1.45501 8.00348 1.37292 8.23306 1.36457C8.46265 1.35622 8.70475 1.42023 8.99556 1.49536C9.30445 1.57467 9.56325 1.7166 9.82901 1.85296C10.0948 1.98931 10.3689 2.12289 10.707 2.1855C11.0367 2.24672 11.3303 2.24533 11.6225 2.22864C11.9147 2.21333 12.2055 2.18272 12.5297 2.18411C13.0195 2.18689 13.5858 2.2175 14.0324 2.37891C14.4791 2.54031 14.8061 2.8339 14.8158 3.36541C14.8269 3.96928 14.4332 4.20026 13.9712 4.3714C13.5093 4.54254 12.9805 4.65107 12.7259 5.01006C12.7037 5.04067 13.3284 5.50261 13.9851 5.97569C14.6433 6.44877 15.3348 6.93437 15.4475 7.0109C16.0736 7.43249 16.7262 7.77617 17.4261 8.04193C18.1246 8.30769 18.869 8.49553 19.676 8.60545C20.4273 8.70702 21.0326 8.79607 21.8396 8.68337C22.2793 8.62215 23.0863 8.50109 23.7945 8.01271C24.1104 7.79565 24.3678 7.52989 24.5654 7.32814C25.0413 6.84115 25.2347 6.50303 25.282 6.52112C25.3376 6.54339 25.1373 7.0596 24.7741 7.56607C24.6447 7.74556 24.3706 8.1282 23.9281 8.45796C23.1197 9.05905 22.1596 9.1801 21.3693 9.27889C20.2186 9.4236 19.2586 9.32898 18.6533 9.23715C17.472 9.06044 16.3116 8.84199 13.9392 7.49093C12.4727 6.65609 11.0521 5.72106 9.49646 5.14641C8.85224 4.90848 6.90845 4.24339 5.25128 3.4002C3.59412 2.55701 2.22219 1.53572 2.72031 0.585385C3.28662 -0.495737 4.11033 0.103959 4.93961 0.910974C5.76749 1.71799 6.60234 2.72954 7.1909 2.47213Z" fill="#ED165F"/>
<path d="M24.7491 17.4812C24.9718 17.4812 25.1554 17.5271 25.2973 17.6203C25.4393 17.7135 25.5492 17.8193 25.6229 17.9361C25.6967 18.0544 25.744 18.1783 25.7621 18.3077C25.7802 18.4384 25.7829 18.547 25.7718 18.6332C25.7217 18.8684 25.6104 19.1661 25.4365 19.5265C25.2626 19.8869 25.0608 20.2834 24.8312 20.7176C24.6016 21.1517 24.3498 21.6136 24.0771 22.1034C23.8044 22.5932 23.5442 23.0746 23.2951 23.5449C23.0474 24.0166 22.8234 24.4758 22.6258 24.921C22.4269 25.3676 22.2849 25.7642 22.1973 26.112C22.1235 26.3973 22.1319 26.5559 22.2251 26.5865C22.3183 26.6171 22.4881 26.5462 22.7372 26.3722C23.1713 26.087 23.6304 25.7113 24.1133 25.2466C24.5975 24.7819 25.0775 24.2851 25.5548 23.7578C26.032 23.2304 26.4912 22.6975 26.9309 22.1577C27.3705 21.6178 27.7615 21.128 28.1024 20.6883C28.4433 20.2487 28.7258 19.8827 28.9484 19.5905C29.171 19.2997 29.3018 19.1411 29.3394 19.1161C29.3895 19.0785 29.4604 19.0604 29.5537 19.0604C29.6469 19.0604 29.7331 19.0827 29.8138 19.1258C29.8945 19.1689 29.9558 19.2288 30.0003 19.3025C30.0434 19.3763 30.0406 19.4695 29.9906 19.5822C29.953 19.6559 29.8361 19.8521 29.6371 20.168C29.4382 20.4838 29.1724 20.8776 28.8371 21.3493C28.5018 21.821 28.1122 22.3413 27.6655 22.9118C27.2189 23.4823 26.7374 24.0653 26.224 24.6608C25.7092 25.2563 25.1666 25.8365 24.5961 26.4001C24.0256 26.965 23.4482 27.4701 22.8652 27.9167C22.7664 27.9793 22.6203 28.0753 22.4283 28.2047C22.2362 28.3355 22.0094 28.4593 21.7493 28.5762C21.4891 28.6945 21.2094 28.7863 20.9116 28.8559C20.6139 28.9241 20.3231 28.9394 20.0378 28.9018C19.8138 28.8643 19.6371 28.778 19.5077 28.6416C19.3769 28.5053 19.2879 28.3258 19.2378 28.1018C19.1877 27.8791 19.1752 27.6217 19.2002 27.3295C19.2252 27.0387 19.2753 26.7243 19.3491 26.3903C19.0764 26.6756 18.741 26.9636 18.3445 27.2558C17.9479 27.548 17.5347 27.8082 17.1075 28.0378C16.679 28.2673 16.2643 28.4593 15.8608 28.6152C15.4573 28.771 15.1136 28.8545 14.8284 28.8656C14.3818 28.8782 13.9977 28.8155 13.6749 28.6792C13.3521 28.5428 13.0891 28.3606 12.8846 28.131C12.6801 27.9014 12.5312 27.644 12.438 27.3587C12.3447 27.0735 12.2988 26.7883 12.2988 26.503C12.2988 26.1065 12.3614 25.6501 12.4853 25.1353C12.6091 24.6205 12.7928 24.0876 13.0335 23.5352C13.2756 22.9842 13.5789 22.4373 13.9449 21.8975C14.3108 21.3576 14.738 20.8553 15.2291 20.3906C15.7189 19.9259 16.2671 19.5224 16.8752 19.1815C17.4832 18.8406 18.1594 18.6012 18.9038 18.4649C19.363 18.3786 19.7721 18.3536 20.1311 18.3911C20.4914 18.4287 20.8031 18.5122 21.0703 18.6416C21.3374 18.7724 21.5572 18.9421 21.7312 19.1536C21.9051 19.3651 22.0345 19.5877 22.1222 19.8229C22.271 19.5377 22.4046 19.29 22.5229 19.0785C22.6411 18.8684 22.7372 18.707 22.8109 18.5943C23.0085 18.2478 23.2144 17.996 23.4245 17.8401C23.6346 17.6857 23.8308 17.5799 24.0103 17.5243C24.1898 17.4686 24.3456 17.4464 24.475 17.4589C24.61 17.4742 24.7004 17.4812 24.7491 17.4812ZM16.2838 27.2864C16.4939 27.2739 16.7638 27.1904 17.0936 27.0359C17.422 26.8815 17.7629 26.67 18.1163 26.4029C18.4697 26.1357 18.8134 25.8254 19.1487 25.472C19.484 25.1186 19.7693 24.7373 20.0044 24.3283C20.1909 23.8566 20.3912 23.3793 20.6097 22.8951C20.8268 22.4109 21.041 21.9462 21.2511 21.4995C21.3263 21.128 21.3318 20.8358 21.2692 20.6257C21.2066 20.4156 21.1176 20.2542 20.9993 20.1415C20.881 20.0302 20.7488 19.9593 20.5986 19.9272C20.4497 19.8966 20.3314 19.8813 20.2451 19.8813C20.0225 19.8688 19.7554 19.9648 19.4451 20.1694C19.1348 20.3739 18.8064 20.6508 18.4586 20.9972C18.1107 21.3451 17.7643 21.7416 17.4164 22.1883C17.0686 22.6349 16.7527 23.0941 16.4675 23.5644C16.1822 24.0361 15.9401 24.498 15.7426 24.9502C15.5436 25.4024 15.4225 25.8032 15.3794 26.1496C15.3363 26.4975 15.3794 26.7757 15.5102 26.9872C15.6424 27.1987 15.8998 27.2989 16.2838 27.2864Z" fill="#ED165F"/>
<path d="M33.4008 13.0343C33.5984 13.0217 33.7695 13.0621 33.9128 13.1553C34.0547 13.2485 34.1633 13.3696 34.2384 13.5185C34.3122 13.6674 34.3442 13.8315 34.3316 14.011C34.3191 14.1905 34.269 14.3547 34.1828 14.5036C33.6498 15.3593 33.0724 16.343 32.4518 17.452C31.8313 18.5623 31.2051 19.7492 30.5734 21.0154C31.2803 21.1142 32.0094 21.1893 32.7593 21.238C33.5093 21.2881 34.2106 21.2811 34.8618 21.2199C35.5129 21.1587 36.0806 21.0251 36.5648 20.8206C37.0491 20.616 37.383 20.3085 37.5694 19.8995C37.6807 19.6643 37.8199 19.5085 37.9882 19.4347C38.1552 19.361 38.3069 19.3513 38.4446 19.4069C38.581 19.4626 38.684 19.5655 38.7521 19.7144C38.8203 19.8633 38.8175 20.0372 38.7424 20.2348C38.5184 20.7802 38.197 21.2241 37.7754 21.565C37.3538 21.9059 36.8793 22.173 36.352 22.365C35.8246 22.557 35.2597 22.6851 34.6586 22.7463C34.0575 22.8089 33.462 22.8298 32.8721 22.8117C32.2821 22.7936 31.7283 22.7505 31.2065 22.6809C30.6862 22.6127 30.2326 22.5417 29.8485 22.4666C29.7483 22.6781 29.6537 22.8854 29.5605 23.09C29.4673 23.2945 29.3713 23.5018 29.2725 23.7133C29.3963 24.185 29.5299 24.7429 29.6732 25.3872C29.8151 26.0328 29.9306 26.7396 30.0169 27.5077C30.1032 28.2771 30.1532 29.0897 30.1658 29.9454C30.1783 30.8011 30.1226 31.6763 29.9988 32.5682C29.8123 33.858 29.5647 34.9531 29.2544 35.8519C28.9441 36.7508 28.6032 37.4896 28.2317 38.0657C27.8602 38.6417 27.4748 39.0883 27.0782 39.4056C26.6817 39.7214 26.3032 39.951 25.9428 40.0943C25.5825 40.2363 25.2583 40.317 24.9661 40.3364C24.6753 40.3545 24.4485 40.3517 24.2871 40.3267C23.7903 40.253 23.3562 40.0595 22.9847 39.7507C22.6132 39.4404 22.3155 39.0438 22.0914 38.5596C21.8688 38.0754 21.7255 37.5244 21.6629 36.9038C21.6017 36.2833 21.6323 35.6265 21.7561 34.9322C21.905 34.1266 22.1401 33.2305 22.4629 32.244C22.7857 31.2575 23.167 30.2251 23.6067 29.1467C24.0478 28.067 24.5222 26.9734 25.0301 25.863C25.5379 24.7527 26.0528 23.6771 26.5745 22.635C26.1404 22.1508 25.7675 21.8975 25.4586 21.8725C25.2611 21.86 25.1734 21.7695 25.1984 21.6025C25.2235 21.4356 25.3098 21.2519 25.4586 21.0543C25.6075 20.8554 25.7842 20.6731 25.9888 20.5061C26.1933 20.3391 26.37 20.2557 26.5189 20.2557C26.5439 20.2557 26.658 20.2807 26.8626 20.3294C27.0671 20.3795 27.3301 20.4352 27.6529 20.4964C28.0244 19.7645 28.382 19.0799 28.7229 18.4413C29.0638 17.8026 29.3713 17.2349 29.644 16.7382C29.9167 16.2429 30.1463 15.8268 30.3327 15.4915C30.5192 15.1562 30.643 14.9335 30.7042 14.8222C30.8656 14.5245 31.0702 14.2671 31.3179 14.05C31.5655 13.8329 31.8229 13.6534 32.0901 13.5101C32.3572 13.3682 32.6077 13.2597 32.8428 13.1845C33.078 13.1094 33.2644 13.0593 33.4008 13.0343ZM28.9163 32.1981C29.0401 30.9695 29.0346 29.823 28.8982 28.7558C28.7618 27.6886 28.5503 26.7215 28.2651 25.8533C27.7809 26.933 27.3189 27.9988 26.8793 29.0535C26.4382 30.1082 26.0486 31.1128 25.7077 32.0673C25.3668 33.0218 25.0816 33.9067 24.852 34.7193C24.6224 35.5319 24.468 36.2387 24.3873 36.8398C24.3066 37.4409 24.3135 37.9182 24.4053 38.2716C24.4986 38.625 24.7003 38.8198 25.0106 38.8574C25.6924 38.9325 26.2503 38.7711 26.6845 38.3746C27.1186 37.978 27.4748 37.4465 27.7545 36.7842C28.0341 36.1205 28.2595 35.383 28.4335 34.5704C28.606 33.7579 28.7674 32.9662 28.9163 32.1981Z" fill="#ED165F"/>
<path d="M46.0516 17.4812C46.2742 17.4812 46.4579 17.5271 46.5998 17.6203C46.7418 17.7135 46.8517 17.8193 46.9254 17.9361C46.9992 18.0544 47.0465 18.1783 47.0646 18.3077C47.0826 18.4384 47.0854 18.547 47.0743 18.6332C47.0242 18.8684 46.9129 19.1661 46.739 19.5265C46.565 19.8869 46.3633 20.2834 46.1337 20.7176C45.9041 21.1517 45.6523 21.6136 45.3796 22.1034C45.1069 22.5932 44.8467 23.0746 44.5976 23.5449C44.3499 24.0166 44.1259 24.4758 43.9283 24.921C43.7294 25.3676 43.5874 25.7642 43.4998 26.112C43.426 26.3973 43.4344 26.5559 43.5276 26.5865C43.6208 26.6171 43.7906 26.5462 44.0396 26.3722C44.4738 26.087 44.9329 25.7113 45.4157 25.2466C45.9 24.7819 46.38 24.2851 46.8572 23.7578C47.3345 23.2304 47.7937 22.6975 48.2333 22.1577C48.673 21.6178 49.064 21.128 49.4049 20.6883C49.7458 20.2487 50.0283 19.8827 50.2509 19.5905C50.4735 19.2997 50.6043 19.1411 50.6419 19.1161C50.692 19.0785 50.7629 19.0604 50.8561 19.0604C50.9494 19.0604 51.0356 19.0827 51.1163 19.1258C51.197 19.1689 51.2583 19.2288 51.3028 19.3025C51.3459 19.3763 51.3431 19.4695 51.293 19.5822C51.2555 19.6559 51.1386 19.8521 50.9396 20.168C50.7407 20.4838 50.4749 20.8776 50.1396 21.3493C49.8042 21.821 49.4146 22.3413 48.968 22.9118C48.5214 23.4823 48.0399 24.0653 47.5265 24.6608C47.0117 25.2563 46.469 25.8365 45.8986 26.4001C45.3281 26.965 44.7507 27.4701 44.1677 27.9167C44.0689 27.9793 43.9228 28.0753 43.7308 28.2047C43.5387 28.3355 43.3119 28.4593 43.0517 28.5762C42.7916 28.6945 42.5119 28.7863 42.2141 28.8559C41.9164 28.9241 41.6256 28.9394 41.3403 28.9018C41.1163 28.8643 40.9396 28.778 40.8102 28.6416C40.6794 28.5053 40.5903 28.3258 40.5403 28.1018C40.4902 27.8791 40.4776 27.6217 40.5027 27.3295C40.5277 27.0387 40.5778 26.7243 40.6516 26.3903C40.3789 26.6756 40.0435 26.9636 39.647 27.2558C39.2504 27.548 38.8372 27.8082 38.41 28.0378C37.9815 28.2673 37.5668 28.4593 37.1633 28.6152C36.7598 28.771 36.4161 28.8545 36.1309 28.8656C35.6843 28.8782 35.3002 28.8155 34.9774 28.6792C34.6546 28.5428 34.3916 28.3606 34.1871 28.131C33.9826 27.9014 33.8337 27.644 33.7405 27.3587C33.6472 27.0735 33.6013 26.7883 33.6013 26.503C33.6013 26.1065 33.6639 25.6501 33.7878 25.1353C33.9116 24.6205 34.0953 24.0876 34.336 23.5352C34.5781 22.9842 34.8814 22.4373 35.2474 21.8975C35.6133 21.3576 36.0405 20.8553 36.5316 20.3906C37.0214 19.9259 37.5696 19.5224 38.1777 19.1815C38.7857 18.8406 39.4619 18.6012 40.2063 18.4649C40.6655 18.3786 41.0746 18.3536 41.4335 18.3911C41.7939 18.4287 42.1056 18.5122 42.3727 18.6416C42.6399 18.7724 42.8597 18.9421 43.0337 19.1536C43.2076 19.3651 43.337 19.5877 43.4246 19.8229C43.5735 19.5377 43.7071 19.29 43.8254 19.0785C43.9436 18.8684 44.0396 18.707 44.1134 18.5943C44.311 18.2478 44.5169 17.996 44.727 17.8401C44.9371 17.6857 45.1333 17.5799 45.3128 17.5243C45.4923 17.4686 45.6481 17.4464 45.7775 17.4589C45.9125 17.4742 46.0029 17.4812 46.0516 17.4812ZM37.5863 27.2864C37.7964 27.2739 38.0663 27.1904 38.3961 27.0359C38.7245 26.8815 39.0654 26.67 39.4188 26.4029C39.7722 26.1357 40.1159 25.8254 40.4512 25.472C40.7865 25.1186 41.0718 24.7373 41.3069 24.3283C41.4934 23.8566 41.6937 23.3793 41.9122 22.8951C42.1292 22.4109 42.3435 21.9462 42.5536 21.4995C42.6288 21.128 42.6343 20.8358 42.5717 20.6257C42.5091 20.4156 42.42 20.2542 42.3018 20.1415C42.1835 20.0302 42.0513 19.9593 41.9011 19.9272C41.7522 19.8966 41.6339 19.8813 41.5476 19.8813C41.325 19.8688 41.0579 19.9648 40.7476 20.1694C40.4373 20.3739 40.1089 20.6508 39.7611 20.9972C39.4132 21.3451 39.0668 21.7416 38.7189 22.1883C38.3711 22.6349 38.0552 23.0941 37.77 23.5644C37.4847 24.0361 37.2426 24.498 37.045 24.9502C36.8461 25.4024 36.725 25.8032 36.6819 26.1496C36.6388 26.4975 36.6819 26.7757 36.8127 26.9872C36.9449 27.1987 37.2023 27.2989 37.5863 27.2864Z" fill="#ED165F"/>
<path d="M50.7963 16.1232C51.0565 16.1107 51.2708 16.1663 51.4378 16.2902C51.6048 16.414 51.6882 16.6185 51.6882 16.9038C51.6882 17.0401 51.6423 17.2321 51.5491 17.4812C51.4559 17.7289 51.3599 17.9779 51.2611 18.2256C51.1247 18.5108 50.9814 18.8142 50.8325 19.137C50.9188 19.2733 51.1359 19.3387 51.4837 19.3318C51.8302 19.3262 52.2281 19.2859 52.6747 19.2107C53.1214 19.1356 53.5805 19.0563 54.0508 18.9686C54.5225 18.8823 54.9246 18.8267 55.26 18.8016C55.5202 18.7891 55.7191 18.842 55.8555 18.9603C55.9919 19.0785 56.0851 19.2246 56.1352 19.3972C56.1853 19.5711 56.1936 19.7534 56.163 19.9454C56.1324 20.1374 56.0726 20.296 55.9863 20.4198C55.9362 20.4936 55.8124 20.7079 55.6148 21.0613C55.4158 21.4147 55.1904 21.8433 54.9358 22.3456C54.6812 22.8478 54.4265 23.3849 54.1733 23.9554C53.9187 24.5259 53.7169 25.056 53.568 25.5458C53.4191 26.0356 53.3482 26.4544 53.3538 26.8022C53.3593 27.1501 53.4998 27.3421 53.7726 27.3797C53.9214 27.4047 54.1761 27.2934 54.5351 27.0443C54.8954 26.7967 55.3128 26.4613 55.7915 26.0397C56.2687 25.6181 56.7738 25.1284 57.3081 24.5704C57.841 24.0125 58.36 23.442 58.8623 22.859C59.3646 22.276 59.8238 21.6999 60.2384 21.1281C60.6545 20.5576 60.98 20.0428 61.2152 19.5836C61.2778 19.4598 61.3738 19.3763 61.5032 19.3318C61.634 19.2886 61.7634 19.2859 61.8942 19.322C62.025 19.3582 62.1293 19.4403 62.2101 19.5641C62.2908 19.688 62.313 19.8619 62.2754 20.0845C62.2629 20.1471 62.1613 20.335 61.9679 20.6522C61.7759 20.9681 61.5185 21.3618 61.1957 21.8335C60.8729 22.3052 60.4889 22.8284 60.0422 23.4058C59.5956 23.9832 59.1156 24.5621 58.6007 25.1451C58.0859 25.7281 57.5433 26.286 56.9728 26.8189C56.4023 27.3518 55.8249 27.8082 55.2419 28.1867C54.6589 28.5651 54.0787 28.8434 53.5026 29.0243C52.9252 29.2038 52.37 29.2316 51.8371 29.1078C51.3279 28.984 50.9411 28.7794 50.6739 28.4942C50.4068 28.2089 50.237 27.868 50.1619 27.4715C50.0881 27.0749 50.0881 26.6408 50.1619 26.1691C50.2356 25.6975 50.3511 25.2272 50.5055 24.7555C50.66 24.2838 50.8437 23.8218 51.0538 23.3696C51.2639 22.9174 51.4698 22.5111 51.6674 22.1508C51.8649 21.7918 52.0361 21.4968 52.1794 21.2672C52.3213 21.0376 52.4118 20.8985 52.4493 20.8484C52.5857 20.6745 52.601 20.5451 52.4953 20.4574C52.3895 20.3711 52.2504 20.3586 52.0764 20.4198C51.89 20.4936 51.6326 20.5562 51.3042 20.6063C50.9758 20.6564 50.6461 20.6369 50.3177 20.5506C49.9893 20.4644 49.6999 20.2779 49.4522 19.9927C49.2046 19.7074 49.0738 19.2678 49.0613 18.6722C49.0487 18.4858 49.0766 18.2506 49.1447 17.9654C49.2129 17.6802 49.3215 17.4047 49.4703 17.1375C49.6192 16.8704 49.8015 16.638 50.0186 16.4404C50.2412 16.2415 50.4986 16.1357 50.7963 16.1232Z" fill="#ED165F"/>
<path d="M62.7957 18.913C63.0197 18.9255 63.2048 18.9756 63.3537 19.0618C63.5025 19.1481 63.6138 19.2538 63.689 19.3777C63.7627 19.5015 63.81 19.6281 63.8281 19.7589C63.8462 19.8897 63.8504 19.9983 63.8379 20.0845C63.7641 20.4198 63.5777 20.8693 63.2799 21.4328C62.9822 21.9977 62.6538 22.5988 62.2934 23.2374C61.933 23.8761 61.5894 24.5245 61.261 25.1812C60.9326 25.8394 60.7002 26.4279 60.5639 26.9483C60.4887 27.2336 60.5291 27.3824 60.6849 27.395C60.8394 27.4075 61.0411 27.3324 61.2902 27.1723C61.7118 26.8871 62.2016 26.5059 62.7595 26.0286C63.3175 25.5514 63.888 25.0365 64.471 24.4841C65.054 23.9331 65.6272 23.3766 66.1921 22.8186C66.757 22.2607 67.2621 21.7486 67.7088 21.2839C68.1554 20.8192 68.5241 20.4352 68.8163 20.1304C69.1071 19.8271 69.2727 19.6629 69.3089 19.6379C69.359 19.6003 69.4299 19.5822 69.5231 19.5822C69.6164 19.5822 69.7026 19.6045 69.7833 19.6476C69.864 19.6908 69.9253 19.7506 69.9698 19.8243C70.0129 19.8995 70.0101 19.9913 69.96 20.104C69.9225 20.1777 69.768 20.3809 69.4953 20.7093C69.2226 21.0376 68.8692 21.4481 68.4351 21.9379C68.0009 22.4276 67.4987 22.9731 66.9282 23.5756C66.3577 24.1766 65.7622 24.7819 65.1416 25.39C64.521 25.998 63.888 26.5893 63.2437 27.1668C62.5981 27.7442 61.9845 28.2549 61.4015 28.7015C61.3152 28.7641 61.1719 28.8601 60.973 28.9895C60.774 29.1203 60.5486 29.2441 60.294 29.361C60.0393 29.4793 59.7638 29.5753 59.4661 29.649C59.1683 29.7228 58.8705 29.7423 58.5728 29.7047C58.1136 29.6421 57.8312 29.3916 57.7268 28.9506C57.6211 28.5109 57.6308 27.971 57.7546 27.3324C57.8785 26.6937 58.0858 25.9966 58.378 25.2397C58.6688 24.4828 58.9763 23.7578 59.2991 23.0635C59.6219 22.3692 59.928 21.7486 60.2202 21.2032C60.511 20.6578 60.7253 20.2668 60.8616 20.0316C61.0606 19.6963 61.2652 19.4486 61.4753 19.2872C61.6854 19.1258 61.8815 19.0173 62.061 18.9617C62.2405 18.906 62.3964 18.8837 62.5258 18.8963C62.6566 18.9074 62.747 18.913 62.7957 18.913ZM63.0378 15.7879C63.1491 15.5638 63.2827 15.3718 63.4371 15.2104C63.5916 15.049 63.7558 14.9252 63.9297 14.8389C64.1036 14.7527 64.2831 14.7026 64.4696 14.69C64.656 14.6775 64.8285 14.7081 64.9899 14.7833C65.1513 14.8695 65.2849 14.9906 65.3907 15.1464C65.4964 15.3023 65.5674 15.4748 65.6049 15.6668C65.6425 15.8588 65.6453 16.0675 65.6147 16.2902C65.5841 16.5142 65.5117 16.7368 65.4004 16.9594C65.2891 17.1834 65.1555 17.3755 65.0011 17.5369C64.8452 17.6983 64.6811 17.8221 64.5085 17.9084C64.3346 17.9946 64.1551 18.0447 63.9687 18.0572C63.7822 18.0698 63.6083 18.0392 63.4483 17.964C63.1255 17.8026 62.9237 17.5118 62.843 17.0888C62.7623 16.6686 62.8277 16.2345 63.0378 15.7879Z" fill="#ED165F"/>
</svg>
