<svg width="179" height="194" viewBox="0 0 179 194" fill="none" xmlns="http://www.w3.org/2000/svg">
<path d="M171.969 97.4121C171.969 117.311 163.841 135.248 150.808 148.141C138.056 160.893 120.399 168.6 100.921 168.6C81.5824 168.6 63.9256 160.753 51.0332 148.141C38.0008 135.248 29.873 117.311 29.873 97.4121C29.873 58.0345 61.6834 26.2241 100.921 26.2241C140.158 26.2241 171.969 58.1746 171.969 97.4121Z" fill="#EAEEF9"/>
<path d="M165.803 50.7473C168.976 50.7473 171.548 48.175 171.548 45.0018C171.548 41.8287 168.976 39.2563 165.803 39.2563C162.63 39.2563 160.057 41.8287 160.057 45.0018C160.057 48.175 162.63 50.7473 165.803 50.7473Z" fill="#EAEEF9"/>
<path d="M174.211 28.326C176.378 28.326 178.135 26.5693 178.135 24.4023C178.135 22.2352 176.378 20.4785 174.211 20.4785C172.044 20.4785 170.287 22.2352 170.287 24.4023C170.287 26.5693 172.044 28.326 174.211 28.326Z" fill="#EAEEF9"/>
<path d="M32.1152 50.6073C34.2822 50.6073 36.039 48.8505 36.039 46.6835C36.039 44.5165 34.2822 42.7598 32.1152 42.7598C29.9482 42.7598 28.1915 44.5165 28.1915 46.6835C28.1915 48.8505 29.9482 50.6073 32.1152 50.6073Z" fill="#EAEEF9"/>
<path d="M8.15231 126.279C12.1768 126.279 15.4393 123.017 15.4393 118.993C15.4393 114.968 12.1768 111.706 8.15231 111.706C4.12784 111.706 0.865356 114.968 0.865356 118.993C0.865356 123.017 4.12784 126.279 8.15231 126.279Z" fill="#EAEEF9"/>
<g filter="url(#filter0_d_1_536)">
<path d="M151.55 64.7762L152.671 155.022C152.671 158.105 150.149 160.488 147.066 160.488H59.0618C55.9789 160.488 53.4565 157.965 53.4565 155.022V38.9916C53.4565 35.9086 55.9789 33.5264 59.0618 33.5264H122.823L151.55 64.7762Z" fill="url(#paint0_linear_1_536)"/>
</g>
<path d="M99.2802 52.4443H68.3106C67.3297 52.4443 66.4889 51.6035 66.4889 50.6225C66.4889 49.6416 67.3297 48.8008 68.3106 48.8008H99.2802C100.261 48.8008 101.102 49.6416 101.102 50.6225C101.102 51.6035 100.261 52.4443 99.2802 52.4443Z" fill="#D5DDEA"/>
<path d="M84.5662 62.5341H68.3106C67.3297 62.5341 66.4889 61.6933 66.4889 60.7124C66.4889 59.7314 67.3297 58.8906 68.3106 58.8906H84.426C85.407 58.8906 86.2478 59.7314 86.2478 60.7124C86.2478 61.6933 85.407 62.5341 84.5662 62.5341Z" fill="#D5DDEA"/>
<path d="M122.823 33.5264V58.4702C122.823 61.9735 125.906 64.7762 129.409 64.7762H151.55" fill="#D5DDEA"/>
<path d="M80.4088 52.1148L87.0675 28.6284L114.417 31.7787L104.868 47.0846L112.264 52.9937L96.3412 87.8221L97.2284 60.8581L80.4088 52.1148Z" fill="#EAEEF9"/>
<path d="M86.3189 25.1951L81.0196 17.218" stroke="#A2ABBE" stroke-width="2"/>
<path d="M100.451 21.2066L101.074 1" stroke="#A2ABBE" stroke-width="2"/>
<path d="M113.122 25.3832L121.582 7.02197" stroke="#A2ABBE" stroke-width="2"/>
<path d="M84.3447 126.25C83.7561 126.25 83.2852 126.015 82.8143 125.661C81.9901 124.837 81.9901 123.425 82.8143 122.6C88.2298 117.303 95.4114 114.359 103.064 114.359C110.716 114.359 117.898 117.303 123.313 122.6C124.138 123.425 124.138 124.837 123.313 125.661C122.489 126.486 121.077 126.486 120.252 125.661C115.661 121.07 109.539 118.598 103.064 118.598C96.5887 118.598 90.4667 121.07 85.8752 125.661C85.4043 126.015 84.9334 126.25 84.3447 126.25Z" fill="#989FB0"/>
<path d="M91.7617 94.698L94.5873 91.8724C95.4114 91.0483 95.4114 89.6356 94.5873 88.8114C93.7632 87.9873 92.3504 87.9873 91.5263 88.8114L88.7008 91.637L85.8752 88.8114C85.0511 87.9873 83.6384 87.9873 82.8143 88.8114C81.9901 89.6356 81.9901 91.0483 82.8143 91.8724L85.6398 94.698L82.8143 97.5235C81.9901 98.3476 81.9901 99.7604 82.8143 100.584C83.2852 101.055 83.7561 101.173 84.3447 101.173C84.9334 101.173 85.4043 100.938 85.8752 100.584L88.7008 97.7589L91.5263 100.584C91.9972 101.055 92.4681 101.173 93.0568 101.173C93.6454 101.173 94.1164 100.938 94.5873 100.584C95.4114 99.7604 95.4114 98.3476 94.5873 97.5235L91.7617 94.698Z" fill="#989FB0"/>
<path d="M120.37 94.698L123.196 91.8724C124.02 91.0483 124.02 89.6356 123.196 88.8114C122.372 87.9873 120.959 87.9873 120.135 88.8114L117.309 91.637L114.484 88.8114C113.66 87.9873 112.247 87.9873 111.423 88.8114C110.599 89.6356 110.599 91.0483 111.423 91.8724L114.248 94.698L111.423 97.5235C110.599 98.3476 110.599 99.7604 111.423 100.584C111.894 101.055 112.365 101.173 112.953 101.173C113.542 101.173 114.013 100.938 114.484 100.584L117.309 97.7589L120.135 100.584C120.606 101.055 121.077 101.173 121.665 101.173C122.254 101.173 122.725 100.938 123.196 100.584C124.02 99.7604 124.02 98.3476 123.196 97.5235L120.37 94.698Z" fill="#989FB0"/>
<defs>
<filter id="filter0_d_1_536" x="31.4565" y="22.5264" width="143.215" height="170.961" filterUnits="userSpaceOnUse" color-interpolation-filters="sRGB">
<feFlood flood-opacity="0" result="BackgroundImageFix"/>
<feColorMatrix in="SourceAlpha" type="matrix" values="0 0 0 0 0 0 0 0 0 0 0 0 0 0 0 0 0 0 127 0" result="hardAlpha"/>
<feOffset dy="11"/>
<feGaussianBlur stdDeviation="11"/>
<feColorMatrix type="matrix" values="0 0 0 0 0.397708 0 0 0 0 0.47749 0 0 0 0 0.575 0 0 0 0.27 0"/>
<feBlend mode="normal" in2="BackgroundImageFix" result="effect1_dropShadow_1_536"/>
<feBlend mode="normal" in="SourceGraphic" in2="effect1_dropShadow_1_536" result="shape"/>
</filter>
<linearGradient id="paint0_linear_1_536" x1="103.032" y1="30.5896" x2="103.032" y2="161.856" gradientUnits="userSpaceOnUse">
<stop stop-color="#FDFEFF"/>
<stop offset="0.9964" stop-color="#ECF0F5"/>
</linearGradient>
</defs>
</svg>
