<svg width="111" height="30" viewBox="0 0 111 30" fill="none" xmlns="http://www.w3.org/2000/svg">
<path d="M3.36 29.32C2.72 29.32 2.2 29.1733 1.8 28.88C1.42667 28.5867 1.2 28.2 1.12 27.72C1.04 27.2133 1.13333 26.6533 1.4 26.04L11.96 2.64C12.3067 1.86667 12.72 1.32 13.2 0.999998C13.7067 0.653331 14.28 0.479998 14.92 0.479998C15.5333 0.479998 16.08 0.653331 16.56 0.999998C17.0667 1.32 17.4933 1.86667 17.84 2.64L28.44 26.04C28.7333 26.6533 28.84 27.2133 28.76 27.72C28.68 28.2267 28.4533 28.6267 28.08 28.92C27.7067 29.1867 27.2133 29.32 26.6 29.32C25.8533 29.32 25.2667 29.1467 24.84 28.8C24.44 28.4267 24.08 27.8667 23.76 27.12L21.16 21.08L23.32 22.48H6.44L8.6 21.08L6.04 27.12C5.69333 27.8933 5.33333 28.4533 4.96 28.8C4.58667 29.1467 4.05333 29.32 3.36 29.32ZM14.84 6.36L9.24 19.68L8.2 18.4H21.56L20.56 19.68L14.92 6.36H14.84ZM39.6903 29.4C37.9836 29.4 36.477 28.9867 35.1703 28.16C33.8903 27.3333 32.8903 26.16 32.1703 24.64C31.4503 23.0933 31.0903 21.28 31.0903 19.2C31.0903 17.0933 31.4503 15.2933 32.1703 13.8C32.8903 12.28 33.8903 11.1067 35.1703 10.28C36.477 9.45333 37.9836 9.04 39.6903 9.04C41.317 9.04 42.7303 9.44 43.9303 10.24C45.157 11.04 45.9836 12.0933 46.4103 13.4H45.9703V3C45.9703 2.17333 46.1836 1.54666 46.6103 1.12C47.037 0.693331 47.6503 0.479998 48.4503 0.479998C49.2503 0.479998 49.8636 0.693331 50.2903 1.12C50.7436 1.54666 50.9703 2.17333 50.9703 3V26.76C50.9703 27.5867 50.757 28.2267 50.3303 28.68C49.9036 29.1067 49.2903 29.32 48.4903 29.32C47.6903 29.32 47.077 29.1067 46.6503 28.68C46.2236 28.2267 46.0103 27.5867 46.0103 26.76V23.64L46.4503 24.84C46.0503 26.2267 45.237 27.3333 44.0103 28.16C42.7836 28.9867 41.3436 29.4 39.6903 29.4ZM41.0903 25.6C42.077 25.6 42.9436 25.36 43.6903 24.88C44.437 24.4 45.0103 23.6933 45.4103 22.76C45.837 21.8 46.0503 20.6133 46.0503 19.2C46.0503 17.0667 45.597 15.48 44.6903 14.44C43.7836 13.3733 42.5836 12.84 41.0903 12.84C40.1036 12.84 39.237 13.08 38.4903 13.56C37.7436 14.0133 37.157 14.72 36.7303 15.68C36.3303 16.6133 36.1303 17.7867 36.1303 19.2C36.1303 21.3067 36.5836 22.9067 37.4903 24C38.397 25.0667 39.597 25.6 41.0903 25.6ZM58.6347 29.28C57.8347 29.28 57.2214 29.04 56.7947 28.56C56.368 28.08 56.1547 27.4133 56.1547 26.56V11.88C56.1547 11 56.368 10.3333 56.7947 9.88C57.2214 9.4 57.8347 9.16 58.6347 9.16C59.4347 9.16 60.048 9.4 60.4747 9.88C60.928 10.3333 61.1547 11 61.1547 11.88V26.56C61.1547 27.4133 60.9414 28.08 60.5147 28.56C60.088 29.04 59.4614 29.28 58.6347 29.28ZM58.6347 5.44C57.7014 5.44 56.968 5.21333 56.4347 4.76C55.928 4.28 55.6747 3.62667 55.6747 2.8C55.6747 1.94667 55.928 1.29333 56.4347 0.839998C56.968 0.386666 57.7014 0.159999 58.6347 0.159999C59.5947 0.159999 60.328 0.386666 60.8347 0.839998C61.3414 1.29333 61.5947 1.94667 61.5947 2.8C61.5947 3.62667 61.3414 4.28 60.8347 4.76C60.328 5.21333 59.5947 5.44 58.6347 5.44ZM68.91 29.32C68.0833 29.32 67.4433 29.1067 66.99 28.68C66.5633 28.2267 66.35 27.5867 66.35 26.76V11.64C66.35 10.8133 66.5633 10.1867 66.99 9.76C67.4167 9.33333 68.0167 9.12 68.79 9.12C69.5633 9.12 70.1633 9.33333 70.59 9.76C71.0167 10.1867 71.23 10.8133 71.23 11.64V14.16H70.83C71.2033 12.56 71.9367 11.3467 73.03 10.52C74.1233 9.69333 75.5767 9.2 77.39 9.04C77.95 8.98667 78.39 9.13333 78.71 9.48C79.0567 9.8 79.2567 10.3067 79.31 11C79.3633 11.6667 79.2033 12.2133 78.83 12.64C78.4833 13.04 77.95 13.28 77.23 13.36L76.35 13.44C74.7233 13.6 73.4967 14.1067 72.67 14.96C71.8433 15.7867 71.43 16.96 71.43 18.48V26.76C71.43 27.5867 71.2167 28.2267 70.79 28.68C70.3633 29.1067 69.7367 29.32 68.91 29.32ZM91.3416 29.4C89.1282 29.4 87.2216 28.9867 85.6216 28.16C84.0216 27.3333 82.7816 26.16 81.9016 24.64C81.0482 23.12 80.6216 21.32 80.6216 19.24C80.6216 17.2133 81.0349 15.44 81.8616 13.92C82.7149 12.4 83.8749 11.2133 85.3416 10.36C86.8349 9.48 88.5282 9.04 90.4216 9.04C91.8082 9.04 93.0482 9.26667 94.1416 9.72C95.2616 10.1733 96.2082 10.8267 96.9816 11.68C97.7816 12.5333 98.3816 13.5733 98.7816 14.8C99.2082 16 99.4216 17.36 99.4216 18.88C99.4216 19.36 99.2482 19.7333 98.9016 20C98.5816 20.24 98.1149 20.36 97.5016 20.36H84.6616V17.48H95.9016L95.2616 18.08C95.2616 16.8533 95.0749 15.8267 94.7016 15C94.3549 14.1733 93.8349 13.5467 93.1416 13.12C92.4749 12.6667 91.6349 12.44 90.6216 12.44C89.5016 12.44 88.5416 12.7067 87.7416 13.24C86.9682 13.7467 86.3682 14.48 85.9416 15.44C85.5416 16.3733 85.3416 17.4933 85.3416 18.8V19.08C85.3416 21.2667 85.8482 22.9067 86.8616 24C87.9016 25.0667 89.4216 25.6 91.4216 25.6C92.1149 25.6 92.8882 25.52 93.7416 25.36C94.6216 25.1733 95.4482 24.8667 96.2216 24.44C96.7816 24.12 97.2749 23.9867 97.7016 24.04C98.1282 24.0667 98.4616 24.2133 98.7016 24.48C98.9682 24.7467 99.1282 25.08 99.1816 25.48C99.2349 25.8533 99.1549 26.24 98.9416 26.64C98.7549 27.04 98.4216 27.3867 97.9416 27.68C97.0082 28.2667 95.9282 28.7067 94.7016 29C93.5016 29.2667 92.3816 29.4 91.3416 29.4Z" fill="#5925DC"/>
<circle cx="107" cy="24" r="4" fill="#F79009"/>
</svg>
