<svg width="24" height="34" viewBox="0 0 24 34" fill="none" xmlns="http://www.w3.org/2000/svg">
<path d="M22.0002 0.333374H2.00016C1.55814 0.333374 1.13421 0.508969 0.821652 0.821529C0.509091 1.13409 0.333496 1.55801 0.333496 2.00004V23.6667H23.6668V2.00004C23.6668 1.55801 23.4912 1.13409 23.1787 0.821529C22.8661 0.508969 22.4422 0.333374 22.0002 0.333374ZM0.333496 32C0.333496 32.4421 0.509091 32.866 0.821652 33.1786C1.13421 33.4911 1.55814 33.6667 2.00016 33.6667H22.0002C22.4422 33.6667 22.8661 33.4911 23.1787 33.1786C23.4912 32.866 23.6668 32.4421 23.6668 32V27H0.333496V32ZM12.0002 27.8834C12.3298 27.8834 12.652 27.9811 12.9261 28.1643C13.2002 28.3474 13.4138 28.6077 13.54 28.9122C13.6661 29.2168 13.6991 29.5519 13.6348 29.8752C13.5705 30.1985 13.4118 30.4955 13.1787 30.7285C12.9456 30.9616 12.6486 31.1204 12.3253 31.1847C12.002 31.249 11.6669 31.216 11.3624 31.0898C11.0578 30.9637 10.7975 30.7501 10.6144 30.476C10.4312 30.2019 10.3335 29.8797 10.3335 29.55C10.3335 29.108 10.5091 28.6841 10.8217 28.3715C11.1342 28.059 11.5581 27.8834 12.0002 27.8834Z" fill="#2F80ED"/>
</svg>
