<svg width="34" height="30" viewBox="0 0 34 30" fill="none" xmlns="http://www.w3.org/2000/svg">
<path fill-rule="evenodd" clip-rule="evenodd" d="M33.6609 8.95854H26.6031C23.3187 8.96432 20.6579 11.5586 20.652 14.7609C20.6476 17.9705 23.3113 20.5763 26.6031 20.5807H33.6668V21.0906C33.6668 26.6893 30.2728 30 24.5291 30H9.47276C3.72757 30 0.333496 26.6893 0.333496 21.0906V8.89643C0.333496 3.2977 3.72757 0 9.47276 0H24.5231C30.2668 0 33.6609 3.2977 33.6609 8.89643V8.95854ZM8.23276 8.94554H17.6328H17.6387H17.6505C18.3542 8.94265 18.9231 8.38365 18.9202 7.69609C18.9172 7.00997 18.3424 6.45529 17.6387 6.45818H8.23276C7.5335 6.46107 6.96609 7.0143 6.96313 7.69753C6.96016 8.38365 7.52905 8.94265 8.23276 8.94554Z" fill="#2F80ED"/>
<path opacity="0.4" d="M23.7293 15.4944C24.0779 17.0798 25.4678 18.1951 27.0546 18.1661H32.4712C33.1314 18.1661 33.667 17.6193 33.667 16.9434V12.7242C33.6656 12.0497 33.1314 11.5015 32.4712 11.5H26.9271C25.1221 11.5058 23.6642 13.0041 23.667 14.8505C23.667 15.0666 23.6882 15.2827 23.7293 15.4944Z" fill="#45A0FE"/>
<ellipse cx="27.0002" cy="14.8333" rx="1.66667" ry="1.66667" fill="#45A0FE"/>
</svg>
