<svg xmlns="http://www.w3.org/2000/svg" xmlns:xlink="http://www.w3.org/1999/xlink" width="192" height="196" viewBox="0 0 192 196">
  <defs>
    <clipPath id="clip-path">
      <rect id="Rectangle_55" data-name="Rectangle 55" width="192" height="196" transform="translate(-1365 14358)" fill="#35b8be"/>
    </clipPath>
  </defs>
  <g id="Pattern_01" data-name="Pattern 01" transform="translate(1365 -14358)" clip-path="url(#clip-path)">
    <g id="_24" data-name="24" transform="translate(-1440.823 14438.969)">
      <path id="Fill_351" data-name="Fill 351" d="M20.026,16.089a6.353,6.353,0,0,0-2.211,4.227c-.147.931-1,1.059-1.636,1.222a2.746,2.746,0,0,0-1.512.618,1.059,1.059,0,0,1-1.005.083,15.127,15.127,0,0,1-2.324-1.45,33.309,33.309,0,0,1-6.1-7.766A70.983,70.983,0,0,1,.268,4.237c-.42-.965-.438-.957.621-1.706.861,1.637,1.663,3.3,2.593,4.887.737,1.26,1.629,2.428,2.526,3.747A1.221,1.221,0,0,0,5.887,9.82,50.455,50.455,0,0,1,1.061,1.582L1.793,1.1l.42.364V.391L4.183,0c.587.274.866,1.313,1.832,1.441C5.984,2.492,6.9,3.016,7.364,3.784a24.631,24.631,0,0,0,1.9,2.484c.62-.083,1.084-.169,1.552-.2,1.644-.115,1.6-.063,2.627.84,1.138,1,1.916,2.407,3.383,3.044a.4.4,0,0,1,.2.285c.046,1.056.637,1.439,1.628,1.7.832.216,1.068,1.092,1.107,1.954.03.661.152,1.318.26,2.2" transform="translate(165.404 125.472)" fill="#33b3b9"/>
      <path id="Fill_353" data-name="Fill 353" d="M1.05,1.1c1.177.589,1.177.589,1.81-.644.8-.276,1.777.28,2.505-.46A23.72,23.72,0,0,0,7.823.6c1.342.184,2.035,1.222,2.793,2.1.514.593,1.053,1.189,1.523,1.833.55.754,1.207,1.429,1.759,2.181.5.682.928,1.418,1.372,2.139a1.259,1.259,0,0,1,.263.655,1.564,1.564,0,0,0,.545,1.34c.766.773.706,1.907.973,2.872a8.546,8.546,0,0,1,.026,2.886c-.03.367-.078,1.15-.886.573-.057-.041-.339.26-.534.374s-.555.348-.628.285c-.852-.748-1.06-.213-1.45.526-.573,1.089-.923,1.009-2.463.734-.937-.168-1.93-.2-2.479-1.01-1.483-2.2-3-4.382-3.209-7.192A4.388,4.388,0,0,0,4.1,7.776c-.8-.7-1.332-1.7-2.425-2.085-.329-.117-.571-.51-.827-.8A3.211,3.211,0,0,1,0,2.719c-.015-.9.7-1.1,1.049-1.616" transform="translate(37.662 17.828)" fill="#33b3b9"/>
      <path id="Fill_355" data-name="Fill 355" d="M8.831,17.975c-.96-.96-1.767-1.9-2.706-2.681-2.7-2.237-3.976-5.4-5.588-8.347C-.187,5.625.02,4.139.051,2.708.057,2.46.4,2.219.6,1.959L1.506,3.75V1.1a6.643,6.643,0,0,0,1.5-.778A1.441,1.441,0,0,1,4.445.088a5.717,5.717,0,0,1,1.44.869,5.26,5.26,0,0,0,.928,3.767c.607-.164,1.323.267,1.931-.356a.781.781,0,0,1,.734-.033c1.488.9,3.315,1.371,4.068,3.209.135.332.285.76.557.907.41.222.042.915.746.942.579.022.209.613.313.934a8.843,8.843,0,0,1,.374,1.2,6.962,6.962,0,0,1,.014,1.157A11.835,11.835,0,0,0,12.367,17.4l-3.535.576" transform="translate(155.64 74.438)" fill="#33b3b9"/>
      <path id="Fill_357" data-name="Fill 357" d="M2.861,1.952c.354-.482.629-.883.934-1.261A1.514,1.514,0,0,1,4.239.366c.456-.255.782.467,1.292.152A3.256,3.256,0,0,1,6.855.007c.379-.036.94.42,1.143.273.453-.327.724-.425,1.118.017.073.081.342.02.509-.021,1.237-.3,1.236-.3,1.9.9l.311-.9a10.016,10.016,0,0,1,.469,1.3,9.634,9.634,0,0,1,.147,1.489,3.228,3.228,0,0,0,.286,1.52l.188-1.865.2-.008a9.727,9.727,0,0,1,.1.991c.011,1.678-.068,3.36.027,5.032a6.213,6.213,0,0,1-1,4.03c-.312-.3-.608-.752-.964-.029-.389.79-1.012.73-1.818.368-.134.859-.194,1.871-1.616,1.547V12.509l-.285-.057-.682,2.222C6.251,14.248,5.73,13.8,5.833,12.9c.028-.251-.265-.526-.359-.806-.409-1.219-.4-1.222-1.415-1.251-.194-.006-.387,0-.581,0H2.947c-.491-.491-.933-.963-1.407-1.4A5.3,5.3,0,0,1,.05,6C-.03,5.36.107,4.7.017,4.064a2.423,2.423,0,0,1,.577-1.7c.633-.978.978-1.007,2.267-.409" transform="translate(0.01 0)" fill="#33b3b9"/>
      <path id="Fill_359" data-name="Fill 359" d="M14.725,10c-.827.562-1.624,1.126-2.455,1.633-.08.049-.369-.243-.681-.461a6.986,6.986,0,0,1-.522.912,11.3,11.3,0,0,1-.813.83c-.546.563-1.073,1.19-1.88.334-.062-.065-.25,0-.377-.014-.907-.1-1.772.128-2.684-.6a21.191,21.191,0,0,1-2.361-1.715A9.863,9.863,0,0,1,1.182,8.742,6.626,6.626,0,0,1,.051,4.569,5.822,5.822,0,0,1,.621,3.3l1.2.987c.316-1.048.251-2.266,1.222-3.19L4.255,2V.588A16.187,16.187,0,0,1,7.966.009,2.82,2.82,0,0,1,9.8.73a10.811,10.811,0,0,1,1.813,1.71c.44.662,1.041,1.215,1.5,1.9A24.169,24.169,0,0,1,14.679,7.96,5.236,5.236,0,0,1,14.725,10" transform="translate(101.3 7.31)" fill="#33b3b9"/>
      <path id="Fill_361" data-name="Fill 361" d="M1.14.827V4.991a9.714,9.714,0,0,0,.352-3.172C1.5,1.393,1.3.864,1.819.61A5.817,5.817,0,0,1,3.49,0c.2-.029.574.439.687.746A3.615,3.615,0,0,1,4.2,1.9c.322-.134.513-.29.684-.271.354.04.841.368,1.022.235,1.008-.742,2.113-.255,3.155-.313a1.8,1.8,0,0,1,1.412.672c.555.943,1.675,1.231,2.262,2.34a2.7,2.7,0,0,0,.574,1.69,3.916,3.916,0,0,1,1,3.061,11.918,11.918,0,0,0-.016,1.837c-1.323.785-2.7,1.547-4.018,2.4-1.38.891-2.636.292-3.811-.323-.857-.45-2.008-.66-2.3-1.858C2.251,10.506,1.91,8.486.887,6.96A7.993,7.993,0,0,1,.026,3.654C-.135,2.757.5,1.717.78.741l.36.086" transform="translate(32.71 53.575)" fill="#33b3b9"/>
      <path id="Fill_363" data-name="Fill 363" d="M2.679,7.051.022,4.394A15.656,15.656,0,0,1,.056,2.233c.038-.277.439-.558.737-.721.113-.063.4.2.616.317C1.691,1.271,1.856.516,2.809.7A.764.764,0,0,0,3.358.648,1.832,1.832,0,0,1,4.956.04,7.649,7.649,0,0,1,8.1,1.271a14.021,14.021,0,0,1,4.1,5.243A21.4,21.4,0,0,1,13.4,10.456a1.878,1.878,0,0,1-.724,1.863c-1.1.772-2.163,1.606-3.289,2.34a2.344,2.344,0,0,1-1.372.383,5.82,5.82,0,0,1-5.662-4.755A3.976,3.976,0,0,1,2,8.906a9.079,9.079,0,0,1,.68-1.855" transform="translate(68.715 68.346)" fill="#33b3b9"/>
      <path id="Fill_365" data-name="Fill 365" d="M15.543,10.532l-.231-1.167c0,1.544-1.635,2.122-1.99,3.434a.769.769,0,0,1-1.108.418c-.469-.424-.788-.115-1.053.058a1.714,1.714,0,0,1-2.02-.006C7.07,12.058,4.933,10.945,3.712,8.726,2.241,7.929,1.811,6.312.9,5.083A9.534,9.534,0,0,1,0,2.859c.541-.788,1.326-.579,2.276-.105a3.167,3.167,0,0,0-.255-1.113c-.26-.349.018-.487.165-.549A5.727,5.727,0,0,0,4.1.08C4.232-.05,4.612,0,4.849.073,5.271.2,5.632.47,6.1.089c.133-.107.566.107.837.227A11.973,11.973,0,0,1,12.771,4.9a5.636,5.636,0,0,0,.92.926c.9.836,1.069,2.054,1.765,2.955a1.52,1.52,0,0,1,.087,1.746" transform="translate(60.688 134.967)" fill="#33b3b9"/>
      <path id="Fill_367" data-name="Fill 367" d="M12.724,3.065c.051-.358.1-.716.159-1.111.141.1.266.143.3.222A23.442,23.442,0,0,1,14.592,5.86c.184.818.418,1.6-.374,2.239-.539.434.008,1.681-1.205,1.611-.572.919-1.488.827-2.365.764a13.679,13.679,0,0,1-.579,1.748c-.291.6-1.221.772-2.218.487-.228-.065-.448-.286-.656-.268-1.615.141-1.612.153-2.292-1.121A19.146,19.146,0,0,1,3.891,9.414,2.809,2.809,0,0,0,2.254,7.747,3.691,3.691,0,0,1,.038,4.918a3.16,3.16,0,0,1,1.355-3L3.1,4.149c0-.938-.01-1.569,0-2.2s.081-.5,1.073-.946C4.883.684,5.91,1.071,6.318.088l2.1-.08c1.293-.051,2.44.09,3.042,1.527a6.954,6.954,0,0,0,1.265,1.53" transform="translate(181.284 51.97)" fill="#33b3b9"/>
      <path id="Fill_369" data-name="Fill 369" d="M2.717,15.941A2.671,2.671,0,0,1,.508,13.57,16.445,16.445,0,0,1,.015,9.864,33.393,33.393,0,0,0,.009,4.83c-.06-.81.46-1.41.448-2.168,0-.2.271-.578.4-.571,1,.057,1.473-1.025,2.521-1.031C4.071,1.057,4.761.407,5.54,0c.767.767,2.4-.181,3.02,1.51-.407,1.188.607,2.232.951,3.449.048.17.226.322.228.482.016,1.917.01,3.834.01,5.917l-.778-.691c.1.45.085.8.238.912s.509-.014.741.064c.105.035.162.313.173.485.006.079-.166.253-.228.24-.47-.092-.933-.22-1.44-.346l-.993,2.149L6.3,14.084c.553.558-.083.758-.312,1.1A12.17,12.17,0,0,0,5.4,16.27c-1.221-.132-1.676-.919-2-1.962l-.678,1.633" transform="translate(0 48.521)" fill="#33b3b9"/>
      <path id="Fill_371" data-name="Fill 371" d="M3.1,6.969c-1-.028-1.954-.3-2.439.813-.82-1.08-.916-1.846-.082-2.7a12.238,12.238,0,0,1,1.69-1.843C2.914,2.787,3.15,1.8,3.7,1.165A8.543,8.543,0,0,1,5.313,0l.643.63-.911.647.1.233,1.382-.218c.132.2.286.708.615.879a12.717,12.717,0,0,1,4.444,4.515,16.029,16.029,0,0,1,.848,1.969c.783,1.584.985,1.877.747,3.317a5.283,5.283,0,0,1-1.18,3,2.206,2.206,0,0,0-.684,1.246c-.043,1.081-.637,1.254-1.51,1.2a2.325,2.325,0,0,0-.74.08c-1.524.41-1.681.367-2.441-.8a24.374,24.374,0,0,1-2.318-5.63c-.462-1.358-.815-2.755-1.206-4.1" transform="translate(142.443 146.722)" fill="#33b3b9"/>
      <path id="Fill_373" data-name="Fill 373" d="M12.18,15.206a13.286,13.286,0,0,1-3.048-2.033c-1.637-1.653-3.394-3.2-4.9-4.964A25.02,25.02,0,0,1,0,2.359C.1,1.5,1.218,2.413,1.239,1.4c.006-.289.714-.568,1.107-.842.975-.68,1.519-.794,2.229-.038A4.261,4.261,0,0,0,7,1.729c1.417.3,2.394,1.388,3.606,2.058a16.925,16.925,0,0,1,3.275,2.869,18.347,18.347,0,0,1,1.693,1.489,5.171,5.171,0,0,1,1.072,1.98,2.029,2.029,0,0,1-.554,1.468c-.408.475-.6,1.16-1.314,1.39-.413.132-.354.593-.435.973-.092.436-.214.967-.971.419-.529-.382-.975.16-1.2.83" transform="translate(108.691 117.199)" fill="#33b3b9"/>
      <path id="Fill_375" data-name="Fill 375" d="M7.641,15.892c-2.211-.911-3.162-2.6-4.107-4.25a35.515,35.515,0,0,1-2.2-4.5C.714,5.594-.359,4.129.12,2.182c1.4.975,1.283,2.838,2.626,4.084C2.5,4.3,1.477,2.773.967.7l1.275.7C2.3,1.057,2.366.7,2.428.35L4.272,0c.181.289.418.716.7,1.111,1.1,1.539,1.1,1.532,3.1,2.241A3.284,3.284,0,0,1,8.7,3.69a9.74,9.74,0,0,1,3.8,3.773,6.614,6.614,0,0,1,.724,2.448.826.826,0,0,0,.24.472.468.468,0,0,1-.141.793c-.872.492-1.249,1.459-2.023,2.038a1.3,1.3,0,0,0-.449.983,1.894,1.894,0,0,1-1.678,1.158c-.314-.073-.517-.649-.944-.224a7.406,7.406,0,0,0-.594.761" transform="translate(191.346 105.289)" fill="#33b3b9"/>
      <path id="Fill_377" data-name="Fill 377" d="M11.9,10.062l-1.184.2.476.891-2.869,2.87a2.9,2.9,0,0,0-.538,0c-2.176.4-3.626-.832-4.834-2.322A17.6,17.6,0,0,1,.566,7.858,4.034,4.034,0,0,1,.1,5L1.939,9.031l.314-.1a3.723,3.723,0,0,0-.15-.736C1.71,7.258,1.262,6.345.891,5.4c-.164-.418-.517-.938.381-1.132.277-.06.439-.657.65-1.01.185-.31.364-.624.511-.874.907-.083.916.71,1.481,1.037L3.478,1.766,4.543.921c.245.243.569.631.87-.084C5.74.065,6.223-.236,7,.271c.071.046.218.082.265.043.906-.746,1.439,0,1.858.568a18.841,18.841,0,0,1,2.07,4.56c.141.366.448,1.224-.584,1.266-.058,0-.1.323-.154.5.215.052.545.218.627.136a.456.456,0,0,1,.833.31c-.348.817.458,1.607-.017,2.413" transform="translate(124.249 65.902)" fill="#33b3b9"/>
      <path id="Fill_379" data-name="Fill 379" d="M1.092,1.249l.8.8c.063-.549.116-1,.174-1.495.8-.167,1.621-.378,2.457-.5a5.237,5.237,0,0,1,1.542,0c.384.06.083.776.8.838.463.041.819.827,1.148,1.375.268.445-.133,1.407.883,1.35q.052.944.106,1.89a1.8,1.8,0,0,0,.026.183l2.883,2.883a6.122,6.122,0,0,1,.948.009c.482.078,1,.555.753.851-.549.658.435,1.113.045,1.65a5.482,5.482,0,0,1-3.195.286c.306.661.572,1.237.906,1.962-.195.187-.452.643-.705.642-1.6-.012-3.281.393-4.706-.741a6.822,6.822,0,0,1-1.153-.926c-.685-.858-1.3-1.774-1.924-2.679-.308-.446-.571-.924-.867-1.38C1.558,7.547,1.694,6.531.854,6.027a4.119,4.119,0,0,0-.663-2.24,1.86,1.86,0,0,1,.9-2.538" transform="translate(128.034 33.31)" fill="#33b3b9"/>
      <path id="Fill_381" data-name="Fill 381" d="M6.317.051h1.79c.692,0,1.441-.115,1.6.886a.49.49,0,0,0,.4.263c.82-.122,1.032.653,1.534.994C13,3.118,13.2,4.642,13.543,6.05c.194.8-.065,1.38-.98,1.927-1.026.614-2.31,1-3.015,2.111-.622.012-1.131.985-1.857.206a.752.752,0,0,0-.512-.147C4.731,10.194,3.2,8.788,1.918,6.913A8.769,8.769,0,0,1,.2,3.943,10.227,10.227,0,0,1,0,2.48C-.011,2.319.084,2.041.2,2,1.181,1.648,1.9.808,2.853.465A7.706,7.706,0,0,1,6.317.051" transform="translate(62.927 5.746)" fill="#33b3b9"/>
      <path id="Fill_383" data-name="Fill 383" d="M.849,1.422l.9,1.413c.091-.676.126-.907.152-1.139C1.985.927,1.983.928,2.955.829c.122-.013.309,0,.352-.065A1.533,1.533,0,0,1,5.141.08,6.358,6.358,0,0,1,7.4,1.137,17.869,17.869,0,0,1,12.317,8.76a4.993,4.993,0,0,1,.026,1.67l-.741-.083c.049.7-.108,1.212-.922,1.376a.958.958,0,0,0-.6.66c-.082.838-.943.43-1.243.866-.48-.763-1.3.161-1.844-.385-.517-.522-1.224-.925-1.565-1.538A21.588,21.588,0,0,1,3.513,7.1,2.517,2.517,0,0,0,2.375,5.5,5.016,5.016,0,0,1,.242,3.253c-.383-.832-.4-.824.607-1.831" transform="translate(65.284 98.494)" fill="#33b3b9"/>
      <path id="Fill_385" data-name="Fill 385" d="M2.011,5.685a2.674,2.674,0,0,1,.016-.7c.042-.161.317-.27.342-.425S2.2,4.2,2.2,4.013c0-.163.228-.363.183-.483a1.461,1.461,0,0,0-.454-.58,1.818,1.818,0,0,0-.591-.174c.121.42.218.759.317,1.1C.965,3.458.2,3.125.539,2.118l.906.389C1.556,1.3.433,1.926,0,1.353c.633.075,1.055-.361,1.692-.277.3.039.679-.588,1.132-1.017L4.98,1.819,5.188.551,8.04,0c.5.633.884,1.211,1.356,1.708.41.43.973.716,1.368,1.157a10.884,10.884,0,0,1,2.078,4.367c.164.556.345,1.435-.717,1.584,0,1.02-1.071,1.173-1.556,1.819a2.293,2.293,0,0,1-2.845.48A10.545,10.545,0,0,1,3.731,7.734c-.556-.662-1.18-1.287-1.72-2.048" transform="translate(100.487 71.663)" fill="#33b3b9"/>
      <path id="Fill_387" data-name="Fill 387" d="M1.742,4.714l.962.327c.07-1.632-1.616-2.09-1.851-3.592a4.045,4.045,0,0,1,.821.375,13.593,13.593,0,0,1,1,.98,2.482,2.482,0,0,0-.7-1.566C3,0,3,0,4.2,0A10.747,10.747,0,0,0,6.278,2.248c.937.573,1.213,1.55,1.9,2.251A9.693,9.693,0,0,1,9.718,6.94,2.778,2.778,0,0,1,10.084,8.5c-.1.624-.366,1.541-.807,1.718-.726.292-.563.805-.792,1.247a2.159,2.159,0,0,1-1.527,1.318c-.459.075-1.005.425-1.342.274a7.117,7.117,0,0,1-2.27-1.485A38.928,38.928,0,0,1,.2,7.66C-.041,7.32.073,6.723,0,6.05l.73.588c-.142-.99.723-1.329,1.012-1.925" transform="translate(132.733 97.797)" fill="#33b3b9"/>
      <path id="Fill_389" data-name="Fill 389" d="M13.507,8.69l-1.033-.568c-.436,1.576-.544,1.658-1.833,1.09.34.792.613,1.425.909,2.114l-1.029.6L8.558,9.959c-.42.946.736,1.382.622,2.3-1.037.144-1.638-.561-2.235-1.21-.326-.354-.5-.849-.838-1.19a42.877,42.877,0,0,1-4.1-4.884A3.326,3.326,0,0,0,1.6,4.558,3.871,3.871,0,0,1,0,1.967c.754-.462,1.155.25,1.668.69.522-.863-.685-.978-.631-1.614C1.083.275,2.542,1.254,2.171,0h2.1c.6.423,1.211.842,1.809,1.277A11.3,11.3,0,0,0,7.811,2.7C8.524,3.041,9,3.856,9.624,4.409c.409.361.669.857,1.323,1.019.473.117.726.835,1.444.742.2-.026.561.335.662.592a14.561,14.561,0,0,1,.454,1.928" transform="translate(110.767 164.984)" fill="#33b3b9"/>
      <path id="Fill_391" data-name="Fill 391" d="M8.443,5.165c.667.044,1.128-.3,1.739.139l-.78.269c.229.778.484,1.55.671,2.339.048.2-.058.6-.2.66C9.1,8.9,8.86,9.739,8.254,10.2a2.134,2.134,0,0,1-1.021.309c-.176.019-.383-.246-.559-.228a1.982,1.982,0,0,0-.636.338c-.333-1.177-.316-1.224-1.627-1.671-.785-.268-.948-1.039-1.5-1.524l-.379.809C2.332,8.026,2,7.84,2,7.655c.01-2.312.008-2.364-1.047-3.749-.595,1.045.545,1.65.607,2.672-.282-.044-.7-.011-.753-.132C.313,5.241-.442,4.1.333,2.657c.24-.449.284-.684.824-.694a2.08,2.08,0,0,0,.988-.388C2.913,1.089,3.654.56,4.476,0L4.8.477c.648.452,1.324-.765,1.432.5.031.36.836-.5.836.444,0,.364.669.729,1.006,1.066L7.721,3.4l.287.2.55-1.045c.346.589.548.93.812,1.377L8.443,5.165" transform="translate(102.499 38.736)" fill="#33b3b9"/>
      <path id="Fill_393" data-name="Fill 393" d="M6.521,10.41,5.328,8.9,4.835,9.911A4.351,4.351,0,0,1,3.158,8.38C2.214,7.048,1.483,5.578.525,4.243A3.566,3.566,0,0,1,.134,1.325c.884-.179,1.076.86,1.813,1.123V.559L5.913,0A10.4,10.4,0,0,1,8.657,3.86C9,4.684,9.711,5.3,9.927,6.247c.085.373-.393.874.2,1.152a4.747,4.747,0,0,1-.181.456c-.96-.346-1.284,1.047-2.208.823-.06-.015-.223.342-.315.538a6.009,6.009,0,0,1-.272.659,3.6,3.6,0,0,1-.625.535" transform="translate(39.201 91.448)" fill="#33b3b9"/>
      <path id="Fill_395" data-name="Fill 395" d="M4.5.011l.768,1.776c.184-.486.268-.709.358-.945.087.053.229.09.248.16a3.9,3.9,0,0,0,.971,1.739,4.642,4.642,0,0,1,.691,1.067A2.18,2.18,0,0,0,9.16,5.065l.312-.633,1.064.8c0,.242.026.346,0,.365-.351.228-.711.444-1.039.645.1.53.181,1.01.309,1.73L8.446,7.307,7.663,8.883l-.939.107v.862a1.8,1.8,0,0,1-2.618-.139c-.921-.84-1.959-1.549-2.9-2.549L2.4,6.376a5.841,5.841,0,0,0-1.15-2.164A13.277,13.277,0,0,1,0,1.872c.568-.7,1.017-.182,1.539.037.022-.2.112-.4.051-.545C1.2.489,1.369.056,2.193.018,2.968-.018,3.744.011,4.5.011" transform="translate(84.201 125.314)" fill="#33b3b9"/>
      <path id="Fill_397" data-name="Fill 397" d="M.868,2.941,1.79,4.306c.086-.268.2-.441.177-.586-.132-.7-.3-1.394-.483-2.184H2.612l.453.943V.894a2.222,2.222,0,0,0,.54-.2c.3-.224.778-.733.827-.693.493.406,1.1.161,1.58.344A1.8,1.8,0,0,1,7.393,2.006c0,.272-.363.574-.309.8.044.186.542.227.691.437a.767.767,0,0,1,.006.731c-.5.4-.392.921-.358,1.407a.977.977,0,0,1-.762,1.13c-.576.164-.711.533-.832,1.084A1.475,1.475,0,0,1,4.22,8.857a3.733,3.733,0,0,0-.939.06C2.51,9.086,1.538,8.9,1.3,8.335.711,6.955-.139,5.651.019,4.026c.062-.633.443-.813.849-1.085" transform="translate(32.607 130.056)" fill="#33b3b9"/>
      <path id="Fill_399" data-name="Fill 399" d="M.213,2.311l1.605.47A1.469,1.469,0,0,0,1.605,1c.68-.618,1.133.314,1.8.213C3.466.873,3.533.518,3.6.171c.522-.559.993.472,1.624-.014s.808.577,1.357.7a1.769,1.769,0,0,1,.816.66c.729.894.842,2.158,1.824,2.938.235.186.11.827.162,1.4-1.088-.534-1.154,1.192-2.2.783-.322.522-.018,1.467-1.2,1.58L5.384,7.2l-.468.978c-.66.157-.963-.413-1.18-.775A8.047,8.047,0,0,0,.874,4.551a1.586,1.586,0,0,1-.661-2.24" transform="translate(95.485 95.779)" fill="#33b3b9"/>
      <path id="Fill_401" data-name="Fill 401" d="M7.914,6.228,5.451,8.159H3.821c-.635-.918-.841-2.125-1.777-2.883C1.947,4,1.063,3.206.3,2.315.051,2.031.1,1.492,0,.964.28.886.558.892.7.756,2.192-.637,3.6.146,4.782,1.1A12.791,12.791,0,0,1,7.368,4.07a6.481,6.481,0,0,1,.546,2.159" transform="translate(78.344 40.31)" fill="#33b3b9"/>
    </g>
  </g>
</svg>
