<svg xmlns="http://www.w3.org/2000/svg" width="110.339" height="27.088" viewBox="0 0 110.339 27.088">
  <g id="trustpilot-logo" transform="translate(-20.5 -248.5)">
    <path id="Path_54" data-name="Path 54" d="M178.118,300.7h11.163v2.078h-4.4v11.714h-2.409V302.778H178.1Zm10.684,3.807h2.06v1.931h.037a2.425,2.425,0,0,1,.386-.791,3.056,3.056,0,0,1,.68-.7,3.008,3.008,0,0,1,.883-.515,2.569,2.569,0,0,1,.975-.2c.257,0,.441.018.533.018a1.611,1.611,0,0,0,.294.037V306.4a3.719,3.719,0,0,0-.478-.074,4.182,4.182,0,0,0-.478-.037,2.552,2.552,0,0,0-1.048.221,2.657,2.657,0,0,0-.864.644,3.487,3.487,0,0,0-.588,1.067,4.5,4.5,0,0,0-.221,1.471v4.745h-2.207Zm15.962,9.986H202.6v-1.4h-.037a3.081,3.081,0,0,1-1.214,1.214,3.2,3.2,0,0,1-1.637.46,3.642,3.642,0,0,1-2.85-.975,4.264,4.264,0,0,1-.883-2.942v-6.345h2.207v6.124a2.61,2.61,0,0,0,.515,1.857,1.816,1.816,0,0,0,1.416.552,2.713,2.713,0,0,0,1.159-.221,2,2,0,0,0,.754-.57,2.237,2.237,0,0,0,.423-.864,4.083,4.083,0,0,0,.129-1.085v-5.793h2.207v9.986Zm3.752-3.2a1.736,1.736,0,0,0,.736,1.361,2.9,2.9,0,0,0,1.526.386,5.055,5.055,0,0,0,.7-.055,3.077,3.077,0,0,0,.736-.184,1.294,1.294,0,0,0,.57-.4.942.942,0,0,0,.2-.68.99.99,0,0,0-.313-.7,2.605,2.605,0,0,0-.736-.441,6.377,6.377,0,0,0-1.03-.276c-.386-.074-.772-.165-1.177-.257s-.809-.2-1.2-.331a3.425,3.425,0,0,1-1.03-.533,2.293,2.293,0,0,1-.717-.846,2.644,2.644,0,0,1-.276-1.269,2.174,2.174,0,0,1,.4-1.361,2.933,2.933,0,0,1,1.011-.883,4.591,4.591,0,0,1,1.361-.478,7.792,7.792,0,0,1,1.416-.129,6.326,6.326,0,0,1,1.471.166,3.719,3.719,0,0,1,1.269.533,2.913,2.913,0,0,1,.938.956,3.312,3.312,0,0,1,.478,1.416h-2.3a1.416,1.416,0,0,0-.717-1.067,2.962,2.962,0,0,0-1.306-.276c-.147,0-.349.018-.552.037a3.25,3.25,0,0,0-.607.147,1.438,1.438,0,0,0-.478.313.736.736,0,0,0-.2.533.808.808,0,0,0,.276.644,2.5,2.5,0,0,0,.736.423,6.383,6.383,0,0,0,1.03.276c.386.074.791.166,1.2.257s.791.2,1.177.331a3.221,3.221,0,0,1,1.03.533,2.652,2.652,0,0,1,.736.828,2.542,2.542,0,0,1,.276,1.232,2.681,2.681,0,0,1-.4,1.508,3.439,3.439,0,0,1-1.048,1.011,5.2,5.2,0,0,1-1.434.57,7.7,7.7,0,0,1-1.563.184,6.585,6.585,0,0,1-1.747-.221,4.448,4.448,0,0,1-1.4-.644,3.087,3.087,0,0,1-.919-1.085,3.543,3.543,0,0,1-.368-1.545H208.5v.018Zm7.264-6.786h1.673v-3.016h2.207v3h1.986v1.637h-1.986v5.333a5.654,5.654,0,0,0,.037.607,1.275,1.275,0,0,0,.129.423.719.719,0,0,0,.313.257,1.64,1.64,0,0,0,.588.092,3.848,3.848,0,0,0,.46-.018,3.979,3.979,0,0,0,.46-.074v1.71c-.239.037-.478.055-.717.074a4.566,4.566,0,0,1-.717.037,4.753,4.753,0,0,1-1.4-.166,2.008,2.008,0,0,1-.828-.478,1.71,1.71,0,0,1-.4-.791,6.278,6.278,0,0,1-.129-1.1v-5.885h-1.673v-1.637Zm7.411,0h2.078v1.361h.037a2.732,2.732,0,0,1,1.287-1.251,4.17,4.17,0,0,1,1.8-.386,4.532,4.532,0,0,1,2.06.423,3.865,3.865,0,0,1,1.453,1.14,4.755,4.755,0,0,1,.864,1.692,7.429,7.429,0,0,1,.037,4.009,5.41,5.41,0,0,1-.791,1.673,3.912,3.912,0,0,1-1.342,1.159,3.969,3.969,0,0,1-1.913.441,5.615,5.615,0,0,1-.956-.092,4.069,4.069,0,0,1-.919-.276,3.3,3.3,0,0,1-.809-.5,2.8,2.8,0,0,1-.625-.7h-.037v4.984H223.21V304.507Zm7.705,5a4.481,4.481,0,0,0-.184-1.306,3.33,3.33,0,0,0-.533-1.122,2.942,2.942,0,0,0-.864-.791,2.353,2.353,0,0,0-1.2-.294,2.442,2.442,0,0,0-2.1.956,4.356,4.356,0,0,0-.7,2.575,4.762,4.762,0,0,0,.184,1.4,3.113,3.113,0,0,0,.552,1.1,2.628,2.628,0,0,0,.883.736,2.493,2.493,0,0,0,1.2.276,2.447,2.447,0,0,0,1.269-.313,2.964,2.964,0,0,0,.864-.791,3.236,3.236,0,0,0,.478-1.122A6.315,6.315,0,0,0,230.9,309.509Zm3.88-8.809h2.207v2.078h-2.207Zm0,3.807h2.207v9.986h-2.207Zm4.174-3.807h2.207v13.792h-2.207Zm8.937,14.068a5.255,5.255,0,0,1-2.133-.4,4.842,4.842,0,0,1-1.582-1.085,4.724,4.724,0,0,1-.975-1.673,6.538,6.538,0,0,1-.349-2.115,5.973,5.973,0,0,1,.349-2.1,4.891,4.891,0,0,1,.975-1.673,4.411,4.411,0,0,1,1.582-1.085,5.582,5.582,0,0,1,2.133-.4,5.255,5.255,0,0,1,2.133.4,4.577,4.577,0,0,1,1.582,1.085,4.725,4.725,0,0,1,.975,1.673,6.425,6.425,0,0,1,.349,2.1,6.005,6.005,0,0,1-.349,2.115,5.206,5.206,0,0,1-.975,1.673,4.41,4.41,0,0,1-1.582,1.085A5.513,5.513,0,0,1,247.889,314.768Zm0-1.747a2.543,2.543,0,0,0,1.269-.313,2.662,2.662,0,0,0,.883-.809,3.467,3.467,0,0,0,.515-1.122,5.017,5.017,0,0,0,0-2.556,3.3,3.3,0,0,0-.515-1.122,2.794,2.794,0,0,0-.883-.791,2.594,2.594,0,0,0-1.269-.313,2.544,2.544,0,0,0-1.269.313,2.817,2.817,0,0,0-.883.791,3.3,3.3,0,0,0-.515,1.122,5.017,5.017,0,0,0,0,2.556,3.3,3.3,0,0,0,.515,1.122,2.853,2.853,0,0,0,.883.809A2.408,2.408,0,0,0,247.889,313.021Zm5.7-8.514h1.673v-3.016h2.207v3h1.986v1.637H257.47v5.333a5.654,5.654,0,0,0,.037.607,1.274,1.274,0,0,0,.129.423.718.718,0,0,0,.313.257,1.64,1.64,0,0,0,.588.092,3.841,3.841,0,0,0,.46-.018,3.979,3.979,0,0,0,.46-.074v1.71c-.239.037-.478.055-.717.074a4.566,4.566,0,0,1-.717.037,4.753,4.753,0,0,1-1.4-.166,2.008,2.008,0,0,1-.828-.478,1.71,1.71,0,0,1-.4-.791,6.278,6.278,0,0,1-.129-1.1v-5.885H253.59v-1.637Z" transform="translate(-128.618 -42.601)"/>
    <path id="Path_55" data-name="Path 55" d="M46.926,258.1H36.83l-3.108-9.6L30.6,258.1l-10.1-.018,8.165,5.94-3.126,9.6,8.165-5.94,8.165,5.94-3.108-9.6Z" transform="translate(0)" fill="#00b67a"/>
    <path id="Path_56" data-name="Path 56" d="M98.138,335.07l-.7-2.17L92.4,336.56Z" transform="translate(-58.678 -68.879)" fill="#005128"/>
  </g>
</svg>
