<svg width="25" height="24" viewBox="0 0 25 24" fill="none" xmlns="http://www.w3.org/2000/svg">
<path opacity="0.1" fill-rule="evenodd" clip-rule="evenodd" d="M0.5 12C0.5 5.37258 5.87258 0 12.5 0C19.1274 0 24.5 5.37258 24.5 12C24.5 18.6274 19.1274 24 12.5 24C5.87258 24 0.5 18.6274 0.5 12Z" fill="#171825"/>
<path fill-rule="evenodd" clip-rule="evenodd" d="M12.5007 5.6001C10.7625 5.6001 10.5444 5.6077 9.86174 5.63876C9.1804 5.66997 8.71533 5.77783 8.30839 5.9361C7.88745 6.09957 7.53038 6.31824 7.17464 6.67411C6.81864 7.02985 6.59997 7.38692 6.43597 7.80772C6.2773 8.21479 6.1693 8.68 6.13863 9.36107C6.1081 10.0437 6.1001 10.262 6.1001 12.0002C6.1001 13.7383 6.10783 13.9558 6.13876 14.6385C6.1701 15.3198 6.27797 15.7849 6.4361 16.1918C6.5997 16.6127 6.81837 16.9698 7.17424 17.3256C7.52985 17.6816 7.88692 17.9008 8.30759 18.0642C8.71479 18.2225 9.18 18.3304 9.8612 18.3616C10.5439 18.3926 10.7619 18.4002 12.4999 18.4002C14.2382 18.4002 14.4557 18.3926 15.1383 18.3616C15.8197 18.3304 16.2853 18.2225 16.6925 18.0642C17.1133 17.9008 17.4698 17.6816 17.8254 17.3256C18.1814 16.9698 18.4001 16.6127 18.5641 16.1919C18.7214 15.7849 18.8294 15.3197 18.8614 14.6386C18.8921 13.9559 18.9001 13.7383 18.9001 12.0002C18.9001 10.262 18.8921 10.0439 18.8614 9.3612C18.8294 8.67986 18.7214 8.21479 18.5641 7.80785C18.4001 7.38692 18.1814 7.02985 17.8254 6.67411C17.4694 6.31811 17.1134 6.09944 16.6921 5.9361C16.2841 5.77783 15.8187 5.66997 15.1374 5.63876C14.4547 5.6077 14.2374 5.6001 12.4987 5.6001H12.5007ZM11.9265 6.75343C12.0969 6.75316 12.2871 6.75343 12.5007 6.75343C14.2095 6.75343 14.412 6.75956 15.0868 6.79023C15.7108 6.81876 16.0495 6.92303 16.2751 7.01063C16.5738 7.12663 16.7867 7.2653 17.0106 7.4893C17.2346 7.7133 17.3733 7.92664 17.4895 8.22531C17.5771 8.45064 17.6815 8.78931 17.7099 9.41332C17.7406 10.088 17.7473 10.2907 17.7473 11.9987C17.7473 13.7067 17.7406 13.9094 17.7099 14.584C17.6814 15.208 17.5771 15.5467 17.4895 15.7721C17.3735 16.0707 17.2346 16.2834 17.0106 16.5073C16.7866 16.7313 16.5739 16.8699 16.2751 16.9859C16.0498 17.0739 15.7108 17.1779 15.0868 17.2065C14.4122 17.2371 14.2095 17.2438 12.5007 17.2438C10.7917 17.2438 10.5892 17.2371 9.91451 17.2065C9.2905 17.1777 8.95183 17.0734 8.7261 16.9858C8.42743 16.8698 8.21409 16.7311 7.99009 16.5071C7.76609 16.2831 7.62742 16.0703 7.51115 15.7715C7.42355 15.5462 7.31915 15.2075 7.29075 14.5835C7.26008 13.9088 7.25395 13.7062 7.25395 11.9971C7.25395 10.288 7.26008 10.0864 7.29075 9.41172C7.31928 8.78771 7.42355 8.44904 7.51115 8.22344C7.62715 7.92477 7.76609 7.71143 7.99009 7.48743C8.21409 7.26343 8.42743 7.12476 8.7261 7.00849C8.9517 6.92049 9.2905 6.81649 9.91451 6.78783C10.5049 6.76116 10.7337 6.75316 11.9265 6.75182V6.75343ZM15.917 7.81611C15.493 7.81611 15.149 8.15971 15.149 8.58385C15.149 9.00785 15.493 9.35185 15.917 9.35185C16.341 9.35185 16.685 9.00785 16.685 8.58385C16.685 8.15984 16.341 7.81611 15.917 7.81611ZM12.5007 8.71345C10.6856 8.71345 9.21401 10.1851 9.21401 12.0001C9.21401 13.8152 10.6856 15.2862 12.5007 15.2862C14.3158 15.2862 15.7869 13.8152 15.7869 12.0001C15.7869 10.1851 14.3158 8.71345 12.5007 8.71345ZM12.5007 9.86679C13.6788 9.86679 14.634 10.8219 14.634 12.0001C14.634 13.1783 13.6788 14.1335 12.5007 14.1335C11.3224 14.1335 10.3673 13.1783 10.3673 12.0001C10.3673 10.8219 11.3224 9.86679 12.5007 9.86679Z" fill="#171825"/>
</svg>
