<svg width="94" height="30" viewBox="0 0 94 30" fill="none" xmlns="http://www.w3.org/2000/svg">
<path d="M5.64 29.32C4.81333 29.32 4.17333 29.0933 3.72 28.64C3.29333 28.16 3.08 27.5067 3.08 26.68V3.12C3.08 2.26667 3.29333 1.61333 3.72 1.16C4.17333 0.706665 4.81333 0.479998 5.64 0.479998C6.46667 0.479998 7.09333 0.706665 7.52 1.16C7.97333 1.61333 8.2 2.26667 8.2 3.12V12.56H22.72V3.12C22.72 2.26667 22.9333 1.61333 23.36 1.16C23.8133 0.706665 24.4533 0.479998 25.28 0.479998C26.1067 0.479998 26.7333 0.706665 27.16 1.16C27.6133 1.61333 27.84 2.26667 27.84 3.12V26.68C27.84 27.5067 27.6133 28.16 27.16 28.64C26.7333 29.0933 26.1067 29.32 25.28 29.32C24.4533 29.32 23.8133 29.0933 23.36 28.64C22.9333 28.16 22.72 27.5067 22.72 26.68V16.84H8.2V26.68C8.2 27.5067 7.98667 28.16 7.56 28.64C7.13333 29.0933 6.49333 29.32 5.64 29.32ZM36.0175 29.28C35.2175 29.28 34.6042 29.04 34.1775 28.56C33.7508 28.08 33.5375 27.4133 33.5375 26.56V11.88C33.5375 11 33.7508 10.3333 34.1775 9.88C34.6042 9.4 35.2175 9.16 36.0175 9.16C36.8175 9.16 37.4308 9.4 37.8575 9.88C38.3108 10.3333 38.5375 11 38.5375 11.88V26.56C38.5375 27.4133 38.3242 28.08 37.8975 28.56C37.4708 29.04 36.8442 29.28 36.0175 29.28ZM36.0175 5.44C35.0842 5.44 34.3508 5.21333 33.8175 4.76C33.3108 4.28 33.0575 3.62667 33.0575 2.8C33.0575 1.94667 33.3108 1.29333 33.8175 0.839998C34.3508 0.386666 35.0842 0.159999 36.0175 0.159999C36.9775 0.159999 37.7108 0.386666 38.2175 0.839998C38.7242 1.29333 38.9775 1.94667 38.9775 2.8C38.9775 3.62667 38.7242 4.28 38.2175 4.76C37.7108 5.21333 36.9775 5.44 36.0175 5.44ZM51.6528 29.32C50.9861 29.32 50.3995 29.1467 49.8928 28.8C49.4128 28.4533 49.0128 27.92 48.6928 27.2L42.3328 12.44C42.0928 11.8533 41.9995 11.3067 42.0528 10.8C42.1328 10.2933 42.3728 9.89333 42.7728 9.6C43.1995 9.28 43.7728 9.12 44.4928 9.12C45.1061 9.12 45.5995 9.26667 45.9728 9.56C46.3461 9.82667 46.6795 10.3467 46.9728 11.12L52.3728 24.6H51.1728L56.7328 11.08C57.0261 10.3333 57.3595 9.82667 57.7328 9.56C58.1328 9.26667 58.6661 9.12 59.3328 9.12C59.9195 9.12 60.3861 9.28 60.7328 9.6C61.0795 9.89333 61.2928 10.2933 61.3728 10.8C61.4528 11.28 61.3595 11.8133 61.0928 12.4L54.6128 27.2C54.3195 27.92 53.9195 28.4533 53.4128 28.8C52.9328 29.1467 52.3461 29.32 51.6528 29.32ZM74.0759 29.4C71.8626 29.4 69.9559 28.9867 68.3559 28.16C66.7559 27.3333 65.5159 26.16 64.6359 24.64C63.7826 23.12 63.3559 21.32 63.3559 19.24C63.3559 17.2133 63.7693 15.44 64.5959 13.92C65.4493 12.4 66.6093 11.2133 68.0759 10.36C69.5693 9.48 71.2626 9.04 73.1559 9.04C74.5426 9.04 75.7826 9.26667 76.8759 9.72C77.9959 10.1733 78.9426 10.8267 79.7159 11.68C80.5159 12.5333 81.1159 13.5733 81.5159 14.8C81.9426 16 82.1559 17.36 82.1559 18.88C82.1559 19.36 81.9826 19.7333 81.6359 20C81.3159 20.24 80.8493 20.36 80.2359 20.36H67.3959V17.48H78.6359L77.9959 18.08C77.9959 16.8533 77.8093 15.8267 77.4359 15C77.0893 14.1733 76.5693 13.5467 75.8759 13.12C75.2093 12.6667 74.3693 12.44 73.3559 12.44C72.2359 12.44 71.2759 12.7067 70.4759 13.24C69.7026 13.7467 69.1026 14.48 68.6759 15.44C68.2759 16.3733 68.0759 17.4933 68.0759 18.8V19.08C68.0759 21.2667 68.5826 22.9067 69.5959 24C70.6359 25.0667 72.1559 25.6 74.1559 25.6C74.8493 25.6 75.6226 25.52 76.4759 25.36C77.3559 25.1733 78.1826 24.8667 78.9559 24.44C79.5159 24.12 80.0093 23.9867 80.4359 24.04C80.8626 24.0667 81.1959 24.2133 81.4359 24.48C81.7026 24.7467 81.8626 25.08 81.9159 25.48C81.9693 25.8533 81.8893 26.24 81.6759 26.64C81.4893 27.04 81.1559 27.3867 80.6759 27.68C79.7426 28.2667 78.6626 28.7067 77.4359 29C76.2359 29.2667 75.1159 29.4 74.0759 29.4Z" fill="#101828"/>
<circle cx="90" cy="24" r="4" fill="#101828"/>
</svg>
