<svg width="25" height="24" viewBox="0 0 25 24" fill="none" xmlns="http://www.w3.org/2000/svg">
<path opacity="0.1" fill-rule="evenodd" clip-rule="evenodd" d="M0.5 12C0.5 5.37258 5.87258 0 12.5 0C19.1274 0 24.5 5.37258 24.5 12C24.5 18.6274 19.1274 24 12.5 24C5.87258 24 0.5 18.6274 0.5 12Z" fill="#171825"/>
<path fill-rule="evenodd" clip-rule="evenodd" d="M12.1406 9.7537L12.1658 10.1689L11.7461 10.1181C10.2184 9.92318 8.88383 9.26221 7.75067 8.15211L7.19668 7.6013L7.05399 8.00805C6.75181 8.91477 6.94487 9.87234 7.5744 10.5164C7.91015 10.8723 7.83461 10.9231 7.25544 10.7113C7.05399 10.6435 6.87772 10.5926 6.86093 10.6181C6.80218 10.6774 7.00363 11.4485 7.16311 11.7536C7.38134 12.1773 7.82621 12.5925 8.31305 12.8382L8.72434 13.0331L8.23751 13.0416C7.76746 13.0416 7.75067 13.0501 7.80103 13.2281C7.96891 13.7789 8.63201 14.3636 9.37066 14.6178L9.89108 14.7957L9.43781 15.0669C8.76631 15.4567 7.9773 15.677 7.18829 15.694C6.81057 15.7025 6.5 15.7364 6.5 15.7618C6.5 15.8465 7.52404 16.3211 8.11999 16.5075C9.90786 17.0583 12.0315 16.821 13.6263 15.8804C14.7595 15.211 15.8926 13.8806 16.4214 12.5925C16.7068 11.9061 16.9922 10.6519 16.9922 10.0503C16.9922 9.66049 17.0174 9.60964 17.4874 9.14357C17.7644 8.8724 18.0246 8.57581 18.075 8.49107C18.1589 8.33007 18.1505 8.33007 17.7224 8.47412C17.009 8.72834 16.9083 8.69445 17.2608 8.31312C17.521 8.04195 17.8316 7.55046 17.8316 7.4064C17.8316 7.38098 17.7057 7.42335 17.563 7.49961C17.4119 7.58435 17.0761 7.71146 16.8243 7.78773L16.3711 7.93179L15.9598 7.65214C15.7331 7.49961 15.4142 7.33013 15.2463 7.27929C14.8182 7.16065 14.1635 7.1776 13.7774 7.31318C12.7282 7.69451 12.0651 8.6775 12.1406 9.7537Z" fill="#171825"/>
</svg>
