<svg width="32" height="35" viewBox="0 0 32 35" fill="none" xmlns="http://www.w3.org/2000/svg">
<path d="M0.695028 15.8151C0.695028 15.8151 -0.436972 14.1651 1.21403 13.0341C2.86303 11.9031 3.99403 13.5521 3.99403 13.5521L9.24503 21.2101C9.42603 20.9081 9.62403 20.6101 9.84503 20.3161L2.55703 9.68908C2.55703 9.68908 1.42603 8.04008 3.07603 6.90908C4.72503 5.77808 5.85603 7.42708 5.85603 7.42708L12.711 17.4241C12.966 17.2161 13.227 17.0071 13.496 16.8021L5.54903 5.21108C5.54903 5.21108 4.41803 3.56208 6.06803 2.43108C7.71703 1.30008 8.84803 2.94908 8.84803 2.94908L16.795 14.5381C17.087 14.3591 17.376 14.2041 17.666 14.0401L10.238 3.20808C10.238 3.20808 9.10703 1.55908 10.756 0.428084C12.405 -0.702916 13.536 0.946084 13.536 0.946084L21.39 12.4001L22.584 14.1421C17.636 17.5361 17.165 23.9211 19.992 28.0441C20.557 28.8691 21.382 28.3041 21.382 28.3041C17.989 23.3551 19.025 17.7941 23.974 14.4011L22.515 7.09908C22.515 7.09908 21.97 5.17508 23.893 4.62908C25.817 4.08408 26.363 6.00808 26.363 6.00808L28.048 11.0121C28.716 12.9961 29.427 14.9731 30.368 16.8431C33.025 22.1231 31.438 28.6851 26.428 32.1221C20.963 35.8691 13.492 34.4761 9.74403 29.0121L0.695028 15.8151Z" fill="#FFDC5D"/>
</svg>
