<svg width="25" height="24" viewBox="0 0 25 24" fill="none" xmlns="http://www.w3.org/2000/svg">
<path opacity="0.1" fill-rule="evenodd" clip-rule="evenodd" d="M0.5 12C0.5 5.37258 5.87258 0 12.5 0C19.1274 0 24.5 5.37258 24.5 12C24.5 18.6274 19.1274 24 12.5 24C5.87258 24 0.5 18.6274 0.5 12Z" fill="#171825"/>
<path fill-rule="evenodd" clip-rule="evenodd" d="M17.5009 7.87476C18.0517 8.02589 18.4854 8.4712 18.6326 9.03671C18.9001 10.0616 18.9001 12.2001 18.9001 12.2001C18.9001 12.2001 18.9001 14.3385 18.6326 15.3635C18.4854 15.929 18.0517 16.3743 17.5009 16.5255C16.5028 16.8001 12.5001 16.8001 12.5001 16.8001C12.5001 16.8001 8.49741 16.8001 7.49923 16.5255C6.94846 16.3743 6.51472 15.929 6.36752 15.3635C6.1001 14.3385 6.1001 12.2001 6.1001 12.2001C6.1001 12.2001 6.1001 10.0616 6.36752 9.03671C6.51472 8.4712 6.94846 8.02589 7.49923 7.87476C8.49741 7.6001 12.5001 7.6001 12.5001 7.6001C12.5001 7.6001 16.5028 7.6001 17.5009 7.87476ZM11.3001 10.4001V14.4001L14.5001 12.4001L11.3001 10.4001Z" fill="#171825"/>
</svg>
