<svg width="20" height="20" viewBox="0 0 20 20" fill="none" xmlns="http://www.w3.org/2000/svg">
<g id="mobile-signal-out">
<path id="Icon" d="M6.66667 15L8.33333 15M12.5 12.5V14.8333C12.5 15.7668 12.5 16.2335 12.3183 16.59C12.1586 16.9036 11.9036 17.1586 11.59 17.3183C11.2335 17.5 10.7668 17.5 9.83333 17.5H5.16667C4.23325 17.5 3.76654 17.5 3.41002 17.3183C3.09641 17.1586 2.84144 16.9036 2.68166 16.59C2.5 16.2335 2.5 15.7668 2.5 14.8333L2.5 5.16667C2.5 4.23325 2.5 3.76654 2.68166 3.41002C2.84144 3.09641 3.09641 2.84144 3.41002 2.68166C3.76654 2.5 4.23325 2.5 5.16667 2.5L7.5 2.5M10.8333 5.87524C11.6341 6.03855 12.3691 6.43373 12.947 7.01159C13.5249 7.58946 13.92 8.3245 14.0833 9.12524M10.8333 9.12516H10.8417M10.8333 2.5C12.5257 2.68822 14.1036 3.4467 15.3076 4.65074C16.5116 5.85477 17.2701 7.43268 17.4583 9.125" stroke="#3538CD" stroke-width="2" stroke-linecap="round" stroke-linejoin="round"/>
</g>
</svg>
