<svg width="20" height="20" viewBox="0 0 20 20" fill="none" xmlns="http://www.w3.org/2000/svg">
<g id="tv-alt">
<path id="Icon" d="M5.83333 17.5L10 14.1667L14.1667 17.5M6.5 14.1667L13.5 14.1667C14.9001 14.1667 15.6002 14.1667 16.135 13.8942C16.6054 13.6545 16.9878 13.272 17.2275 12.8016C17.5 12.2669 17.5 11.5668 17.5 10.1667V6.5C17.5 5.09987 17.5 4.3998 17.2275 3.86502C16.9878 3.39462 16.6054 3.01217 16.135 2.77248C15.6002 2.5 14.9001 2.5 13.5 2.5L6.5 2.5C5.09987 2.5 4.3998 2.5 3.86502 2.77248C3.39462 3.01217 3.01217 3.39462 2.77248 3.86502C2.5 4.3998 2.5 5.09987 2.5 6.5L2.5 10.1667C2.5 11.5668 2.5 12.2669 2.77248 12.8016C3.01217 13.272 3.39462 13.6545 3.86502 13.8942C4.3998 14.1667 5.09987 14.1667 6.5 14.1667Z" stroke="#3538CD" stroke-width="2" stroke-linecap="round" stroke-linejoin="round"/>
</g>
</svg>
