<svg width="36" height="37" viewBox="0 0 36 37" fill="none" xmlns="http://www.w3.org/2000/svg">
<path d="M4.86088 9.62611C5.80088 8.96911 7.21788 9.09511 8.06188 9.79211L7.09388 8.38511C6.31488 7.27411 6.59388 6.07211 7.70588 5.29211C8.81788 4.51511 11.9689 6.60411 11.9689 6.60411C11.1829 5.48211 11.3299 4.06011 12.4519 3.27311C13.5739 2.48911 15.1219 2.76011 15.9079 3.88411L26.3279 18.6041L24.9999 31.4791L13.9169 27.4371L4.24988 13.1041C3.45688 11.9751 3.73088 10.4181 4.86088 9.62611Z" fill="#EF9645"/>
<path d="M2.69497 17.8151C2.69497 17.8151 1.56297 16.1651 3.21397 15.0341C4.86297 13.9031 5.99397 15.5521 5.99397 15.5521L11.245 23.2101C11.426 22.9081 11.624 22.6101 11.845 22.3161L4.55697 11.6891C4.55697 11.6891 3.42597 10.0401 5.07597 8.90908C6.72497 7.77808 7.85597 9.42708 7.85597 9.42708L14.711 19.4241C14.966 19.2161 15.227 19.0071 15.496 18.8021L7.54897 7.21108C7.54897 7.21108 6.41797 5.56208 8.06797 4.43108C9.71697 3.30008 10.848 4.94908 10.848 4.94908L18.795 16.5381C19.087 16.3591 19.376 16.2041 19.666 16.0401L12.238 5.20808C12.238 5.20808 11.107 3.55908 12.756 2.42808C14.405 1.29708 15.536 2.94608 15.536 2.94608L23.39 14.4001L24.584 16.1421C19.636 19.5361 19.165 25.9211 21.992 30.0441C22.557 30.8691 23.382 30.3041 23.382 30.3041C19.989 25.3551 21.025 19.7941 25.974 16.4011L24.515 9.09908C24.515 9.09908 23.97 7.17508 25.893 6.62908C27.817 6.08408 28.363 8.00808 28.363 8.00808L30.048 13.0121C30.716 14.9961 31.427 16.9731 32.368 18.8431C35.025 24.1231 33.438 30.6851 28.428 34.1221C22.963 37.8691 15.492 36.4761 11.744 31.0121L2.69497 17.8151Z" fill="#FFDC5D"/>
<path d="M12 32.521C8.00001 32.521 3.95801 28.479 3.95801 24.479C3.95801 23.926 3.55301 23.479 3.00001 23.479C2.44701 23.479 1.95801 23.926 1.95801 24.479C1.95801 30.479 6.00001 34.521 12 34.521C12.553 34.521 13 34.032 13 33.479C13 32.926 12.553 32.521 12 32.521Z" fill="#5DADEC"/>
<path d="M7 34.479C4 34.479 2 32.479 2 29.479C2 28.926 1.553 28.479 1 28.479C0.447 28.479 0 28.926 0 29.479C0 33.479 3 36.479 7 36.479C7.553 36.479 8 36.032 8 35.479C8 34.926 7.553 34.479 7 34.479ZM24 2.479C23.448 2.479 23 2.927 23 3.479C23 4.031 23.448 4.479 24 4.479C28 4.479 32 8.068 32 12.479C32 13.031 32.448 13.479 33 13.479C33.552 13.479 34 13.031 34 12.479C34 6.965 30 2.479 24 2.479Z" fill="#5DADEC"/>
<path d="M29 0.520996C28.448 0.520996 28 0.926996 28 1.479C28 2.031 28.448 2.521 29 2.521C32 2.521 33.958 4.746 33.958 7.479C33.958 8.031 34.447 8.479 35 8.479C35.553 8.479 35.958 8.031 35.958 7.479C35.958 3.642 33 0.520996 29 0.520996Z" fill="#5DADEC"/>
</svg>
