<svg width="72" height="72" viewBox="0 0 72 72" fill="none" xmlns="http://www.w3.org/2000/svg">
<rect width="72" height="72" rx="12" fill="#E8F1FD"/>
<path d="M45.9997 19.3333H25.9997C25.5576 19.3333 25.1337 19.5088 24.8212 19.8214C24.5086 20.134 24.333 20.5579 24.333 20.9999V42.6666H47.6663V20.9999C47.6663 20.5579 47.4907 20.134 47.1782 19.8214C46.8656 19.5088 46.4417 19.3333 45.9997 19.3333V19.3333ZM24.333 50.9999C24.333 51.4419 24.5086 51.8659 24.8212 52.1784C25.1337 52.491 25.5576 52.6666 25.9997 52.6666H45.9997C46.4417 52.6666 46.8656 52.491 47.1782 52.1784C47.4907 51.8659 47.6663 51.4419 47.6663 50.9999V45.9999H24.333V50.9999ZM35.9997 46.8833C36.3293 46.8833 36.6515 46.981 36.9256 47.1641C37.1997 47.3473 37.4133 47.6076 37.5395 47.9121C37.6656 48.2167 37.6986 48.5518 37.6343 48.8751C37.57 49.1984 37.4113 49.4953 37.1782 49.7284C36.9451 49.9615 36.6481 50.1203 36.3248 50.1846C36.0015 50.2489 35.6664 50.2159 35.3619 50.0897C35.0573 49.9636 34.797 49.7499 34.6139 49.4759C34.4308 49.2018 34.333 48.8796 34.333 48.5499C34.333 48.1079 34.5086 47.684 34.8212 47.3714C35.1337 47.0588 35.5576 46.8833 35.9997 46.8833V46.8833Z" fill="#2F80ED"/>
</svg>
