<svg width="24" height="24" viewBox="0 0 24 24" fill="none" xmlns="http://www.w3.org/2000/svg"><path fill-rule="evenodd" clip-rule="evenodd" d="M0 11.1802C0 10.1578 0.433157 9.18342 1.19173 8.49948L9.59173 0.925812C10.9608 -0.308603 13.0392 -0.308605 14.4083 0.925811L22.8083 8.49948C23.5668 9.18342 24 10.1578 24 11.1802V20.3935C24 22.3853 22.3882 24 20.4 24H16.8L16.7933 24H7.2067L7.2 24H3.6C1.61177 24 0 22.3853 0 20.3935V11.1802Z" fill="#737373"/><path d="M8 17C8 15.8954 8.89543 15 10 15H15C16.1046 15 17 15.8954 17 17V24H8V17Z" fill="#D4D4D4"/></svg>