<svg width="48" height="48" viewBox="0 0 48 48" fill="none" xmlns="http://www.w3.org/2000/svg"><circle cx="24" cy="24" r="24" fill="#E3F1FF"/><circle cx="24" cy="30" r="4" fill="#91C7FF"/><path d="M32.5858 30H15.4041C14.6286 30 14 29.3714 14 28.5959C14 28.2151 14.1547 27.8506 14.4286 27.586L15.4576 26.5922C15.8493 26.2139 16.0698 25.6922 16.0681 25.1476L16.0587 21.9946C16.0454 17.5832 19.6179 14 24.0293 14C28.4314 14 32 17.5686 32 21.9707L32 25.1716C32 25.702 32.2107 26.2107 32.5858 26.5858L33.5858 27.5858C33.851 27.851 34 28.2107 34 28.5858C34 29.3668 33.3668 30 32.5858 30Z" fill="#2F80ED"/></svg>