<svg width="24" height="22" viewBox="0 0 24 22" fill="none" xmlns="http://www.w3.org/2000/svg"><path d="M14.0354 0.380754C12.7206 -0.126917 11.2794 -0.126918 9.96457 0.380753L1.56824 3.62266C-0.522738 4.43 -0.522754 7.56999 1.56824 8.37734L9.96457 11.6192C11.2794 12.1269 12.7206 12.1269 14.0354 11.6192L22.4318 8.37734C24.5227 7.57 24.5228 4.43001 22.4318 3.62266L14.0354 0.380754Z" fill="#2F80ED"/><path fill-rule="evenodd" clip-rule="evenodd" d="M0.0696675 11.7957C0.291686 11.1733 0.977867 10.8481 1.60229 11.0694L11.196 14.4696C11.7161 14.6539 12.2839 14.6539 12.804 14.4696L22.3977 11.0694C23.0221 10.8481 23.7083 11.1733 23.9303 11.7957C24.1524 12.4181 23.8261 13.1021 23.2017 13.3234L13.608 16.7235C12.5679 17.0922 11.4321 17.0922 10.392 16.7235L0.798294 13.3234C0.173866 13.1021 -0.152351 12.4181 0.0696675 11.7957Z" fill="#65B1FE"/><path fill-rule="evenodd" clip-rule="evenodd" d="M0.0696675 15.9283C0.291686 15.2022 0.977867 14.8228 1.60229 15.081L11.196 19.0478C11.7161 19.2628 12.2839 19.2628 12.804 19.0478L22.3977 15.081C23.0221 14.8228 23.7083 15.2022 23.9303 15.9283C24.1524 16.6545 23.8261 17.4525 23.2017 17.7107L13.608 21.6775C12.5679 22.1075 11.4321 22.1075 10.392 21.6775L0.798294 17.7107C0.173866 17.4525 -0.152351 16.6545 0.0696675 15.9283Z" fill="#45A0FE"/></svg>