<svg width="72" height="72" viewBox="0 0 72 72" fill="none" xmlns="http://www.w3.org/2000/svg"><rect width="72" height="72" rx="12" fill="#E8F1FD"/><path fill-rule="evenodd" clip-rule="evenodd" d="M52.6604 29.9585H45.6026C42.3182 29.9643 39.6575 32.5586 39.6515 35.7609C39.6471 38.9705 42.3108 41.5763 45.6026 41.5807H52.6663V42.0906C52.6663 47.6893 49.2723 51 43.5286 51H28.4723C22.7271 51 19.333 47.6893 19.333 42.0906V29.8964C19.333 24.2977 22.7271 21 28.4723 21H43.5226C49.2663 21 52.6604 24.2977 52.6604 29.8964V29.9585ZM27.2323 29.9455H36.6323H36.6382H36.65C37.3538 29.9427 37.9226 29.3836 37.9197 28.6961C37.9167 28.01 37.3419 27.4553 36.6382 27.4582H27.2323C26.533 27.4611 25.9656 28.0143 25.9626 28.6975C25.9597 29.3836 26.5286 29.9427 27.2323 29.9455Z" fill="#2F80ED"/><path opacity="0.4" d="M42.7284 36.4944C43.0769 38.0798 44.4668 39.1951 46.0537 39.1661H51.4702C52.1305 39.1661 52.666 38.6193 52.666 37.9434V33.7242C52.6646 33.0497 52.1305 32.5015 51.4702 32.5H45.9261C44.1211 32.5058 42.6632 34.0041 42.666 35.8505C42.666 36.0666 42.6873 36.2827 42.7284 36.4944Z" fill="#45A0FE"/><ellipse cx="45.9997" cy="35.8333" rx="1.66667" ry="1.66667" fill="#45A0FE"/></svg>