<svg width="24" height="24" viewBox="0 0 24 24" fill="none" xmlns="http://www.w3.org/2000/svg"><path d="M7.54546 4.07836C8.05815 3.81223 8.47991 3.38557 8.66943 2.83989L9.18901 1.34384C9.46842 0.539325 10.2267 0 11.0783 0H12.9217C13.7734 0 14.5316 0.539324 14.811 1.34384L15.3306 2.83989C15.5201 3.38557 15.9419 3.81223 16.4546 4.07837C16.6208 4.16464 16.784 4.2556 16.944 4.35105C17.423 4.63685 17.9847 4.77241 18.532 4.66492L20.2794 4.32171C21.1055 4.15947 21.9447 4.53189 22.3787 5.25328L23.2265 6.66259C23.6848 7.42456 23.5851 8.39764 22.9816 9.05076L21.9393 10.179C21.5365 10.6149 21.361 11.2071 21.3743 11.8005C21.3772 11.9334 21.3772 12.0665 21.3743 12.1994C21.361 12.7928 21.5365 13.385 21.9393 13.821L22.9816 14.9492C23.5851 15.6023 23.6848 16.5754 23.2264 17.3373L22.3787 18.7466C21.9447 19.468 21.1055 19.8405 20.2794 19.6782L18.5321 19.335C17.9848 19.2275 17.423 19.3631 16.944 19.6489C16.784 19.7444 16.6208 19.8353 16.4546 19.9216C15.9419 20.1878 15.5201 20.6144 15.3306 21.1601L14.811 22.6562C14.5316 23.4607 13.7734 24 12.9217 24H11.0783C10.2267 24 9.46842 23.4607 9.18901 22.6562L8.66943 21.1601C8.47991 20.6144 8.05815 20.1878 7.54546 19.9216C7.37922 19.8353 7.21601 19.7444 7.05601 19.6489C6.57702 19.3631 6.01528 19.2275 5.46796 19.335L3.72057 19.6782C2.8945 19.8405 2.05527 19.468 1.62132 18.7466L0.773549 17.3373C0.31519 16.5754 0.414946 15.6023 1.01837 14.9492L2.06078 13.8209C2.46355 13.385 2.63901 12.7928 2.6258 12.1994C2.62284 12.0665 2.62284 11.9334 2.6258 11.8006C2.63901 11.2072 2.46355 10.6149 2.06078 10.179L1.01837 9.05075C0.414945 8.39764 0.31519 7.42455 0.773548 6.66259L1.62132 5.25328C2.05527 4.53189 2.8945 4.15947 3.72057 4.32171L5.46805 4.66492C6.01537 4.77242 6.57709 4.63685 7.05608 4.35106C7.21606 4.2556 7.37925 4.16465 7.54546 4.07836Z" fill="#737373"/><path fill-rule="evenodd" clip-rule="evenodd" d="M12 16C14.2091 16 16 14.2091 16 12C16 9.79086 14.2091 8 12 8C9.79086 8 8 9.79086 8 12C8 14.2091 9.79086 16 12 16Z" fill="#E5E5E5"/></svg>